  0
SECTION
  2
HEADER
  9
$ACADVER
  1
AC1002
  9
$INSBASE
 10
0.0
 20
0.0
  9
$EXTMIN
 10
-48.9215
 20
-56.0185
  9
$EXTMAX
 10
53.6656
 20
55.3008
  9
$LIMMIN
 10
0.0
 20
0.0
  9
$LIMMAX
 10
12.0
 20
9.0
  9
$ORTHOMODE
 70
     0
  9
$REGENMODE
 70
     1
  9
$FILLMODE
 70
     1
  9
$QTEXTMODE
 70
     0
  9
$DRAGMODE
 70
     2
  9
$LTSCALE
 40
1.0
  9
$OSMODE
 70
    37
  9
$ATTMODE
 70
     1
  9
$TEXTSIZE
 40
0.2
  9
$TRACEWID
 40
0.05
  9
$TEXTSTYLE
  7
STANDARD
  9
$CLAYER
  8
0
  9
$CELTYPE
  6
BYLAYER
  9
$CECOLOR
 62
   256
  9
$DIMSCALE
 40
1.0
  9
$DIMASZ
 40
0.18
  9
$DIMEXO
 40
0.0625
  9
$DIMDLI
 40
0.38
  9
$DIMRND
 40
0.0
  9
$DIMDLE
 40
0.0
  9
$DIMEXE
 40
0.18
  9
$DIMTP
 40
0.0
  9
$DIMTM
 40
0.0
  9
$DIMTXT
 40
0.18
  9
$DIMCEN
 40
0.09
  9
$DIMTSZ
 40
0.0
  9
$DIMTOL
 70
     0
  9
$DIMLIM
 70
     0
  9
$DIMTIH
 70
     1
  9
$DIMTOH
 70
     1
  9
$DIMSE1
 70
     0
  9
$DIMSE2
 70
     0
  9
$DIMTAD
 70
     0
  9
$DIMZIN
 70
     0
  9
$DIMBLK
  1

  9
$LUNITS
 70
     2
  9
$LUPREC
 70
     4
  9
$SKETCHINC
 40
0.1
  9
$FILLETRAD
 40
0.5
  9
$AUNITS
 70
     0
  9
$AUPREC
 70
     0
  9
$MENU
  1
.
  9
$ELEVATION
 40
0.0
  9
$THICKNESS
 40
0.0
  9
$LIMCHECK
 70
     0
  9
$CHAMFERA
 40
0.0
  9
$CHAMFERB
 40
0.0
  9
$SKPOLY
 70
     0
  9
$TDCREATE
 40
2459236.311693415
  9
$TDUPDATE
 40
2459236.311693461
  9
$TDINDWG
 40
0.0000000116
  9
$TDUSRTIMER
 40
0.0000000116
  9
$USRTIMER
 70
     1
  9
$ANGBASE
 50
0.0
  9
$ANGDIR
 70
     0
  9
$PDMODE
 70
     0
  9
$PDSIZE
 40
0.0
  9
$PLINEWID
 40
0.0
  9
$COORDS
 70
     1
  9
$SURFTAB1
 70
     6
  9
$SURFTAB2
 70
     6
  9
$SURFTYPE
 70
     6
  9
$SURFU
 70
     6
  9
$SURFV
 70
     6
  9
$UCSNAME
  2

  9
$UCSORG
 10
0.0
 20
0.0
 30
0.0
  9
$UCSXDIR
 10
1.0
 20
0.0
 30
0.0
  9
$UCSYDIR
 10
0.0
 20
1.0
 30
0.0
  9
$USERI1
 70
     0
  9
$USERI2
 70
     0
  9
$USERI3
 70
     0
  9
$USERI4
 70
     0
  9
$USERI5
 70
     0
  9
$USERR1
 40
0.0
  9
$USERR2
 40
0.0
  9
$USERR3
 40
0.0
  9
$USERR4
 40
0.0
  9
$USERR5
 40
0.0
  0
ENDSEC
  0
SECTION
  2
TABLES
  0
TABLE
  2
LTYPE
 70
     1
  0
LTYPE
  2
CONTINUOUS
 70
     0
  3
Solid line
 72
    65
 73
     0
 40
0.0
  0
ENDTAB
  0
TABLE
  2
LAYER
 70
     3
  0
LAYER
  2
0
 70
     0
 62
     7
  6
CONTINUOUS
  0
LAYER
  2
LAYER_1
 70
     0
 62
     7
  6
CONTINUOUS
  0
LAYER
  2
20
 70
     0
 62
     7
  6
CONTINUOUS
  0
ENDTAB
  0
TABLE
  2
STYLE
 70
     1
  0
STYLE
  2
STANDARD
 70
     0
 40
0.0
 41
1.0
 50
0.0
 71
     0
 42
0.2
  3
txt
  4

  0
ENDTAB
  0
TABLE
  2
VIEW
 70
     0
  0
ENDTAB
  0
ENDSEC
  0
SECTION
  2
BLOCKS
  0
ENDSEC
  0
SECTION
  2
ENTITIES
  0
POLYLINE
  8
LAYER_1
 62
   250
 66
     1
  0
VERTEX
  8
LAYER_1
 62
   250
 10
53.6656
 20
-55.9804
  0
VERTEX
  8
LAYER_1
 62
   250
 10
35.3684
 20
-55.9804
  0
SEQEND
  8
LAYER_1
 62
   250
  0
POLYLINE
  8
LAYER_1
 62
   250
 66
     1
  0
VERTEX
  8
LAYER_1
 62
   250
 10
-29.2799
 20
-32.1565
  0
VERTEX
  8
LAYER_1
 62
   250
 10
-33.2578
 20
-28.427
  0
VERTEX
  8
LAYER_1
 62
   250
 10
-36.7714
 20
-24.3214
  0
VERTEX
  8
LAYER_1
 62
   250
 10
-39.8004
 20
-19.8835
  0
VERTEX
  8
LAYER_1
 62
   250
 10
-42.3243
 20
-15.1569
  0
VERTEX
  8
LAYER_1
 62
   250
 10
-44.3227
 20
-10.1853
  0
VERTEX
  8
LAYER_1
 62
   250
 10
-45.7754
 20
-5.0124
  0
VERTEX
  8
LAYER_1
 62
   250
 10
-46.662
 20
0.3182
  0
VERTEX
  8
LAYER_1
 62
   250
 10
-46.962
 20
5.7627
  0
VERTEX
  8
LAYER_1
 62
   250
 10
-45.9563
 20
15.7387
  0
VERTEX
  8
LAYER_1
 62
   250
 10
-43.072
 20
25.0303
  0
VERTEX
  8
LAYER_1
 62
   250
 10
-38.5082
 20
33.4386
  0
VERTEX
  8
LAYER_1
 62
   250
 10
-32.4638
 20
40.7645
  0
VERTEX
  8
LAYER_1
 62
   250
 10
-25.1379
 20
46.8089
  0
VERTEX
  8
LAYER_1
 62
   250
 10
-16.7296
 20
51.3727
  0
VERTEX
  8
LAYER_1
 62
   250
 10
-7.438
 20
54.257
  0
VERTEX
  8
LAYER_1
 62
   250
 10
2.538
 20
55.2627
  0
VERTEX
  8
LAYER_1
 62
   250
 10
12.514
 20
54.257
  0
VERTEX
  8
LAYER_1
 62
   250
 10
21.8056
 20
51.3727
  0
VERTEX
  8
LAYER_1
 62
   250
 10
30.2139
 20
46.8089
  0
VERTEX
  8
LAYER_1
 62
   250
 10
37.5398
 20
40.7645
  0
VERTEX
  8
LAYER_1
 62
   250
 10
43.5842
 20
33.4386
  0
VERTEX
  8
LAYER_1
 62
   250
 10
48.148
 20
25.0303
  0
VERTEX
  8
LAYER_1
 62
   250
 10
51.0323
 20
15.7387
  0
VERTEX
  8
LAYER_1
 62
   250
 10
52.038
 20
5.7627
  0
VERTEX
  8
LAYER_1
 62
   250
 10
51.738
 20
0.3182
  0
VERTEX
  8
LAYER_1
 62
   250
 10
50.8514
 20
-5.0124
  0
VERTEX
  8
LAYER_1
 62
   250
 10
49.3987
 20
-10.1853
  0
VERTEX
  8
LAYER_1
 62
   250
 10
47.4003
 20
-15.1569
  0
VERTEX
  8
LAYER_1
 62
   250
 10
44.8764
 20
-19.8835
  0
VERTEX
  8
LAYER_1
 62
   250
 10
41.8474
 20
-24.3214
  0
VERTEX
  8
LAYER_1
 62
   250
 10
38.3338
 20
-28.427
  0
VERTEX
  8
LAYER_1
 62
   250
 10
34.3559
 20
-32.1565
  0
SEQEND
  8
LAYER_1
 62
   250
  0
POLYLINE
  8
LAYER_1
 62
   250
 66
     1
  0
VERTEX
  8
LAYER_1
 62
   250
 10
26.9369
 20
-37.1167
  0
VERTEX
  8
LAYER_1
 62
   250
 10
24.0693
 20
-38.649
  0
VERTEX
  8
LAYER_1
 62
   250
 10
21.117
 20
-39.9858
  0
VERTEX
  8
LAYER_1
 62
   250
 10
18.09
 20
-41.1243
  0
VERTEX
  8
LAYER_1
 62
   250
 10
14.9984
 20
-42.0618
  0
VERTEX
  8
LAYER_1
 62
   250
 10
11.8522
 20
-42.7957
  0
VERTEX
  8
LAYER_1
 62
   250
 10
8.6615
 20
-43.3232
  0
VERTEX
  8
LAYER_1
 62
   250
 10
5.4363
 20
-43.6417
  0
VERTEX
  8
LAYER_1
 62
   250
 10
2.1868
 20
-43.7485
  0
VERTEX
  8
LAYER_1
 62
   250
 10
-1.0627
 20
-43.6417
  0
VERTEX
  8
LAYER_1
 62
   250
 10
-4.2879
 20
-43.3232
  0
VERTEX
  8
LAYER_1
 62
   250
 10
-7.4786
 20
-42.7957
  0
VERTEX
  8
LAYER_1
 62
   250
 10
-10.6247
 20
-42.0618
  0
VERTEX
  8
LAYER_1
 62
   250
 10
-13.7163
 20
-41.1243
  0
VERTEX
  8
LAYER_1
 62
   250
 10
-16.7433
 20
-39.9858
  0
VERTEX
  8
LAYER_1
 62
   250
 10
-19.6956
 20
-38.649
  0
VERTEX
  8
LAYER_1
 62
   250
 10
-22.5631
 20
-37.1167
  0
SEQEND
  8
LAYER_1
 62
   250
  0
POLYLINE
  8
LAYER_1
 62
   250
 66
     1
  0
VERTEX
  8
LAYER_1
 62
   250
 10
-29.2799
 20
-32.1565
  0
VERTEX
  8
LAYER_1
 62
   250
 10
-48.8921
 20
-55.9804
  0
SEQEND
  8
LAYER_1
 62
   250
  0
POLYLINE
  8
LAYER_1
 62
   250
 66
     1
  0
VERTEX
  8
LAYER_1
 62
   250
 10
-22.5631
 20
-37.1167
  0
VERTEX
  8
LAYER_1
 62
   250
 10
-30.752
 20
-55.9804
  0
SEQEND
  8
LAYER_1
 62
   250
  0
POLYLINE
  8
LAYER_1
 62
   250
 66
     1
  0
VERTEX
  8
LAYER_1
 62
   250
 10
34.3559
 20
-32.1565
  0
VERTEX
  8
LAYER_1
 62
   250
 10
53.6161
 20
-55.9804
  0
SEQEND
  8
LAYER_1
 62
   250
  0
POLYLINE
  8
LAYER_1
 62
   250
 66
     1
  0
VERTEX
  8
LAYER_1
 62
   250
 10
26.9369
 20
-37.1167
  0
VERTEX
  8
LAYER_1
 62
   250
 10
35.4762
 20
-55.9803
  0
SEQEND
  8
LAYER_1
 62
   250
  0
POLYLINE
  8
LAYER_1
 62
   250
 66
     1
  0
VERTEX
  8
LAYER_1
 62
   250
 10
-30.752
 20
-55.9804
  0
VERTEX
  8
LAYER_1
 62
   250
 10
-48.8921
 20
-55.9804
  0
SEQEND
  8
LAYER_1
 62
   250
  0
POLYLINE
  8
LAYER_1
 62
   250
 66
     1
 70
     1
  0
VERTEX
  8
LAYER_1
 62
   250
 10
-34.6462
 20
-48.4246
  0
VERTEX
  8
LAYER_1
 62
   250
 10
-34.93883548302419
 20
-48.45342207939515
  0
VERTEX
  8
LAYER_1
 62
   250
 10
-35.22022514854763
 20
-48.53878070123307
  0
VERTEX
  8
LAYER_1
 62
   250
 10
-35.47955534952941
 20
-48.67739558154618
  0
VERTEX
  8
LAYER_1
 62
   250
 10
-35.70686017177982
 20
-48.86393982822018
  0
VERTEX
  8
LAYER_1
 62
   250
 10
-35.89340441845382
 20
-49.09124465047059
  0
VERTEX
  8
LAYER_1
 62
   250
 10
-36.03201929876693
 20
-49.35057485145236
  0
VERTEX
  8
LAYER_1
 62
   250
 10
-36.11737792060485
 20
-49.63196451697581
  0
VERTEX
  8
LAYER_1
 62
   250
 10
-36.1462
 20
-49.9246
  0
VERTEX
  8
LAYER_1
 62
   250
 10
-36.11737792060485
 20
-50.21723548302419
  0
VERTEX
  8
LAYER_1
 62
   250
 10
-36.03201929876693
 20
-50.49862514854763
  0
VERTEX
  8
LAYER_1
 62
   250
 10
-35.89340441845382
 20
-50.7579553495294
  0
VERTEX
  8
LAYER_1
 62
   250
 10
-35.70686017177982
 20
-50.98526017177982
  0
VERTEX
  8
LAYER_1
 62
   250
 10
-35.47955534952941
 20
-51.17180441845382
  0
VERTEX
  8
LAYER_1
 62
   250
 10
-35.22022514854763
 20
-51.31041929876693
  0
VERTEX
  8
LAYER_1
 62
   250
 10
-34.93883548302419
 20
-51.39577792060484
  0
VERTEX
  8
LAYER_1
 62
   250
 10
-34.6462
 20
-51.4246
  0
VERTEX
  8
LAYER_1
 62
   250
 10
-34.35356451697581
 20
-51.39577792060484
  0
VERTEX
  8
LAYER_1
 62
   250
 10
-34.07217485145237
 20
-51.31041929876693
  0
VERTEX
  8
LAYER_1
 62
   250
 10
-33.81284465047059
 20
-51.17180441845382
  0
VERTEX
  8
LAYER_1
 62
   250
 10
-33.58553982822018
 20
-50.98526017177982
  0
VERTEX
  8
LAYER_1
 62
   250
 10
-33.39899558154618
 20
-50.7579553495294
  0
VERTEX
  8
LAYER_1
 62
   250
 10
-33.26038070123307
 20
-50.49862514854763
  0
VERTEX
  8
LAYER_1
 62
   250
 10
-33.17502207939516
 20
-50.21723548302419
  0
VERTEX
  8
LAYER_1
 62
   250
 10
-33.1462
 20
-49.92459999999999
  0
VERTEX
  8
LAYER_1
 62
   250
 10
-33.17502207939516
 20
-49.6319645169758
  0
VERTEX
  8
LAYER_1
 62
   250
 10
-33.26038070123307
 20
-49.35057485145236
  0
VERTEX
  8
LAYER_1
 62
   250
 10
-33.39899558154619
 20
-49.09124465047059
  0
VERTEX
  8
LAYER_1
 62
   250
 10
-33.58553982822018
 20
-48.86393982822018
  0
VERTEX
  8
LAYER_1
 62
   250
 10
-33.8128446504706
 20
-48.67739558154618
  0
VERTEX
  8
LAYER_1
 62
   250
 10
-34.07217485145237
 20
-48.53878070123307
  0
VERTEX
  8
LAYER_1
 62
   250
 10
-34.35356451697582
 20
-48.45342207939515
  0
SEQEND
  8
LAYER_1
 62
   250
  0
POLYLINE
  8
LAYER_1
 62
   250
 66
     1
 70
     1
  0
VERTEX
  8
LAYER_1
 62
   250
 10
39.7897
 20
-48.4246
  0
VERTEX
  8
LAYER_1
 62
   250
 10
39.49706451697581
 20
-48.45342207939515
  0
VERTEX
  8
LAYER_1
 62
   250
 10
39.21567485145237
 20
-48.53878070123307
  0
VERTEX
  8
LAYER_1
 62
   250
 10
38.9563446504706
 20
-48.67739558154618
  0
VERTEX
  8
LAYER_1
 62
   250
 10
38.72903982822018
 20
-48.86393982822018
  0
VERTEX
  8
LAYER_1
 62
   250
 10
38.54249558154618
 20
-49.09124465047059
  0
VERTEX
  8
LAYER_1
 62
   250
 10
38.40388070123307
 20
-49.35057485145236
  0
VERTEX
  8
LAYER_1
 62
   250
 10
38.31852207939516
 20
-49.63196451697581
  0
VERTEX
  8
LAYER_1
 62
   250
 10
38.2897
 20
-49.9246
  0
VERTEX
  8
LAYER_1
 62
   250
 10
38.31852207939516
 20
-50.21723548302419
  0
VERTEX
  8
LAYER_1
 62
   250
 10
38.40388070123307
 20
-50.49862514854763
  0
VERTEX
  8
LAYER_1
 62
   250
 10
38.54249558154618
 20
-50.7579553495294
  0
VERTEX
  8
LAYER_1
 62
   250
 10
38.72903982822018
 20
-50.98526017177982
  0
VERTEX
  8
LAYER_1
 62
   250
 10
38.9563446504706
 20
-51.17180441845382
  0
VERTEX
  8
LAYER_1
 62
   250
 10
39.21567485145237
 20
-51.31041929876693
  0
VERTEX
  8
LAYER_1
 62
   250
 10
39.49706451697581
 20
-51.39577792060484
  0
VERTEX
  8
LAYER_1
 62
   250
 10
39.7897
 20
-51.4246
  0
VERTEX
  8
LAYER_1
 62
   250
 10
40.0823354830242
 20
-51.39577792060484
  0
VERTEX
  8
LAYER_1
 62
   250
 10
40.36372514854764
 20
-51.31041929876693
  0
VERTEX
  8
LAYER_1
 62
   250
 10
40.62305534952941
 20
-51.17180441845382
  0
VERTEX
  8
LAYER_1
 62
   250
 10
40.85036017177983
 20
-50.98526017177982
  0
VERTEX
  8
LAYER_1
 62
   250
 10
41.03690441845382
 20
-50.7579553495294
  0
VERTEX
  8
LAYER_1
 62
   250
 10
41.17551929876694
 20
-50.49862514854763
  0
VERTEX
  8
LAYER_1
 62
   250
 10
41.26087792060485
 20
-50.21723548302419
  0
VERTEX
  8
LAYER_1
 62
   250
 10
41.2897
 20
-49.92459999999999
  0
VERTEX
  8
LAYER_1
 62
   250
 10
41.26087792060485
 20
-49.6319645169758
  0
VERTEX
  8
LAYER_1
 62
   250
 10
41.17551929876693
 20
-49.35057485145236
  0
VERTEX
  8
LAYER_1
 62
   250
 10
41.03690441845382
 20
-49.09124465047059
  0
VERTEX
  8
LAYER_1
 62
   250
 10
40.85036017177982
 20
-48.86393982822018
  0
VERTEX
  8
LAYER_1
 62
   250
 10
40.6230553495294
 20
-48.67739558154618
  0
VERTEX
  8
LAYER_1
 62
   250
 10
40.36372514854763
 20
-48.53878070123307
  0
VERTEX
  8
LAYER_1
 62
   250
 10
40.08233548302419
 20
-48.45342207939515
  0
SEQEND
  8
LAYER_1
 62
   250
  0
POLYLINE
  8
LAYER_1
 62
   250
 66
     1
 70
     1
  0
VERTEX
  8
LAYER_1
 62
   250
 10
-30.0373
 20
17.4788
  0
VERTEX
  8
LAYER_1
 62
   250
 10
-30.32993548302419
 20
17.44997792060484
  0
VERTEX
  8
LAYER_1
 62
   250
 10
-30.61132514854763
 20
17.36461929876693
  0
VERTEX
  8
LAYER_1
 62
   250
 10
-30.8706553495294
 20
17.22600441845382
  0
VERTEX
  8
LAYER_1
 62
   250
 10
-31.09796017177982
 20
17.03946017177982
  0
VERTEX
  8
LAYER_1
 62
   250
 10
-31.28450441845382
 20
16.8121553495294
  0
VERTEX
  8
LAYER_1
 62
   250
 10
-31.42311929876693
 20
16.55282514854763
  0
VERTEX
  8
LAYER_1
 62
   250
 10
-31.50847792060484
 20
16.27143548302419
  0
VERTEX
  8
LAYER_1
 62
   250
 10
-31.5373
 20
15.9788
  0
VERTEX
  8
LAYER_1
 62
   250
 10
-31.50847792060484
 20
15.68616451697581
  0
VERTEX
  8
LAYER_1
 62
   250
 10
-31.42311929876693
 20
15.40477485145236
  0
VERTEX
  8
LAYER_1
 62
   250
 10
-31.28450441845382
 20
15.1454446504706
  0
VERTEX
  8
LAYER_1
 62
   250
 10
-31.09796017177982
 20
14.91813982822018
  0
VERTEX
  8
LAYER_1
 62
   250
 10
-30.8706553495294
 20
14.73159558154618
  0
VERTEX
  8
LAYER_1
 62
   250
 10
-30.61132514854763
 20
14.59298070123307
  0
VERTEX
  8
LAYER_1
 62
   250
 10
-30.32993548302419
 20
14.50762207939515
  0
VERTEX
  8
LAYER_1
 62
   250
 10
-30.0373
 20
14.4788
  0
VERTEX
  8
LAYER_1
 62
   250
 10
-29.7446645169758
 20
14.50762207939515
  0
VERTEX
  8
LAYER_1
 62
   250
 10
-29.46327485145236
 20
14.59298070123307
  0
VERTEX
  8
LAYER_1
 62
   250
 10
-29.20394465047059
 20
14.73159558154618
  0
VERTEX
  8
LAYER_1
 62
   250
 10
-28.97663982822018
 20
14.91813982822018
  0
VERTEX
  8
LAYER_1
 62
   250
 10
-28.79009558154618
 20
15.1454446504706
  0
VERTEX
  8
LAYER_1
 62
   250
 10
-28.65148070123307
 20
15.40477485145237
  0
VERTEX
  8
LAYER_1
 62
   250
 10
-28.56612207939515
 20
15.68616451697581
  0
VERTEX
  8
LAYER_1
 62
   250
 10
-28.5373
 20
15.9788
  0
VERTEX
  8
LAYER_1
 62
   250
 10
-28.56612207939515
 20
16.2714354830242
  0
VERTEX
  8
LAYER_1
 62
   250
 10
-28.65148070123307
 20
16.55282514854764
  0
VERTEX
  8
LAYER_1
 62
   250
 10
-28.79009558154618
 20
16.81215534952941
  0
VERTEX
  8
LAYER_1
 62
   250
 10
-28.97663982822018
 20
17.03946017177983
  0
VERTEX
  8
LAYER_1
 62
   250
 10
-29.2039446504706
 20
17.22600441845382
  0
VERTEX
  8
LAYER_1
 62
   250
 10
-29.46327485145237
 20
17.36461929876693
  0
VERTEX
  8
LAYER_1
 62
   250
 10
-29.74466451697581
 20
17.44997792060485
  0
SEQEND
  8
LAYER_1
 62
   250
  0
POLYLINE
  8
LAYER_1
 62
   250
 66
     1
 70
     1
  0
VERTEX
  8
LAYER_1
 62
   250
 10
34.8822
 20
17.2846
  0
VERTEX
  8
LAYER_1
 62
   250
 10
34.58956451697581
 20
17.25577792060485
  0
VERTEX
  8
LAYER_1
 62
   250
 10
34.30817485145236
 20
17.17041929876693
  0
VERTEX
  8
LAYER_1
 62
   250
 10
34.04884465047059
 20
17.03180441845382
  0
VERTEX
  8
LAYER_1
 62
   250
 10
33.82153982822017
 20
16.84526017177982
  0
VERTEX
  8
LAYER_1
 62
   250
 10
33.63499558154618
 20
16.6179553495294
  0
VERTEX
  8
LAYER_1
 62
   250
 10
33.49638070123306
 20
16.35862514854763
  0
VERTEX
  8
LAYER_1
 62
   250
 10
33.41102207939515
 20
16.07723548302419
  0
VERTEX
  8
LAYER_1
 62
   250
 10
33.3822
 20
15.7846
  0
VERTEX
  8
LAYER_1
 62
   250
 10
33.41102207939515
 20
15.49196451697581
  0
VERTEX
  8
LAYER_1
 62
   250
 10
33.49638070123306
 20
15.21057485145236
  0
VERTEX
  8
LAYER_1
 62
   250
 10
33.63499558154618
 20
14.9512446504706
  0
VERTEX
  8
LAYER_1
 62
   250
 10
33.82153982822017
 20
14.72393982822018
  0
VERTEX
  8
LAYER_1
 62
   250
 10
34.04884465047059
 20
14.53739558154618
  0
VERTEX
  8
LAYER_1
 62
   250
 10
34.30817485145236
 20
14.39878070123307
  0
VERTEX
  8
LAYER_1
 62
   250
 10
34.58956451697581
 20
14.31342207939515
  0
VERTEX
  8
LAYER_1
 62
   250
 10
34.8822
 20
14.2846
  0
VERTEX
  8
LAYER_1
 62
   250
 10
35.17483548302419
 20
14.31342207939515
  0
VERTEX
  8
LAYER_1
 62
   250
 10
35.45622514854763
 20
14.39878070123307
  0
VERTEX
  8
LAYER_1
 62
   250
 10
35.7155553495294
 20
14.53739558154618
  0
VERTEX
  8
LAYER_1
 62
   250
 10
35.94286017177982
 20
14.72393982822018
  0
VERTEX
  8
LAYER_1
 62
   250
 10
36.12940441845382
 20
14.9512446504706
  0
VERTEX
  8
LAYER_1
 62
   250
 10
36.26801929876693
 20
15.21057485145237
  0
VERTEX
  8
LAYER_1
 62
   250
 10
36.35337792060484
 20
15.49196451697581
  0
VERTEX
  8
LAYER_1
 62
   250
 10
36.3822
 20
15.7846
  0
VERTEX
  8
LAYER_1
 62
   250
 10
36.35337792060484
 20
16.0772354830242
  0
VERTEX
  8
LAYER_1
 62
   250
 10
36.26801929876692
 20
16.35862514854764
  0
VERTEX
  8
LAYER_1
 62
   250
 10
36.12940441845381
 20
16.61795534952941
  0
VERTEX
  8
LAYER_1
 62
   250
 10
35.94286017177981
 20
16.84526017177982
  0
VERTEX
  8
LAYER_1
 62
   250
 10
35.7155553495294
 20
17.03180441845382
  0
VERTEX
  8
LAYER_1
 62
   250
 10
35.45622514854762
 20
17.17041929876693
  0
VERTEX
  8
LAYER_1
 62
   250
 10
35.17483548302418
 20
17.25577792060485
  0
SEQEND
  8
LAYER_1
 62
   250
  0
POLYLINE
  8
LAYER_1
 62
   250
 66
     1
 70
     1
  0
VERTEX
  8
LAYER_1
 62
   250
 10
-20.0478
 20
-25.5154
  0
VERTEX
  8
LAYER_1
 62
   250
 10
-20.34043548302419
 20
-25.54422207939515
  0
VERTEX
  8
LAYER_1
 62
   250
 10
-20.62182514854763
 20
-25.62958070123307
  0
VERTEX
  8
LAYER_1
 62
   250
 10
-20.8811553495294
 20
-25.76819558154618
  0
VERTEX
  8
LAYER_1
 62
   250
 10
-21.10846017177982
 20
-25.95473982822018
  0
VERTEX
  8
LAYER_1
 62
   250
 10
-21.29500441845382
 20
-26.1820446504706
  0
VERTEX
  8
LAYER_1
 62
   250
 10
-21.43361929876693
 20
-26.44137485145237
  0
VERTEX
  8
LAYER_1
 62
   250
 10
-21.51897792060484
 20
-26.72276451697581
  0
VERTEX
  8
LAYER_1
 62
   250
 10
-21.5478
 20
-27.0154
  0
VERTEX
  8
LAYER_1
 62
   250
 10
-21.51897792060484
 20
-27.30803548302419
  0
VERTEX
  8
LAYER_1
 62
   250
 10
-21.43361929876693
 20
-27.58942514854763
  0
VERTEX
  8
LAYER_1
 62
   250
 10
-21.29500441845382
 20
-27.8487553495294
  0
VERTEX
  8
LAYER_1
 62
   250
 10
-21.10846017177982
 20
-28.07606017177982
  0
VERTEX
  8
LAYER_1
 62
   250
 10
-20.8811553495294
 20
-28.26260441845382
  0
VERTEX
  8
LAYER_1
 62
   250
 10
-20.62182514854763
 20
-28.40121929876693
  0
VERTEX
  8
LAYER_1
 62
   250
 10
-20.34043548302419
 20
-28.48657792060484
  0
VERTEX
  8
LAYER_1
 62
   250
 10
-20.0478
 20
-28.5154
  0
VERTEX
  8
LAYER_1
 62
   250
 10
-19.7551645169758
 20
-28.48657792060484
  0
VERTEX
  8
LAYER_1
 62
   250
 10
-19.47377485145236
 20
-28.40121929876693
  0
VERTEX
  8
LAYER_1
 62
   250
 10
-19.21444465047059
 20
-28.26260441845382
  0
VERTEX
  8
LAYER_1
 62
   250
 10
-18.98713982822018
 20
-28.07606017177982
  0
VERTEX
  8
LAYER_1
 62
   250
 10
-18.80059558154618
 20
-27.8487553495294
  0
VERTEX
  8
LAYER_1
 62
   250
 10
-18.66198070123307
 20
-27.58942514854763
  0
VERTEX
  8
LAYER_1
 62
   250
 10
-18.57662207939515
 20
-27.30803548302419
  0
VERTEX
  8
LAYER_1
 62
   250
 10
-18.5478
 20
-27.0154
  0
VERTEX
  8
LAYER_1
 62
   250
 10
-18.57662207939515
 20
-26.7227645169758
  0
VERTEX
  8
LAYER_1
 62
   250
 10
-18.66198070123307
 20
-26.44137485145236
  0
VERTEX
  8
LAYER_1
 62
   250
 10
-18.80059558154618
 20
-26.18204465047059
  0
VERTEX
  8
LAYER_1
 62
   250
 10
-18.98713982822018
 20
-25.95473982822017
  0
VERTEX
  8
LAYER_1
 62
   250
 10
-19.2144446504706
 20
-25.76819558154618
  0
VERTEX
  8
LAYER_1
 62
   250
 10
-19.47377485145237
 20
-25.62958070123307
  0
VERTEX
  8
LAYER_1
 62
   250
 10
-19.75516451697581
 20
-25.54422207939515
  0
SEQEND
  8
LAYER_1
 62
   250
  0
POLYLINE
  8
LAYER_1
 62
   250
 66
     1
 70
     1
  0
VERTEX
  8
LAYER_1
 62
   250
 10
24.9522
 20
-25.5154
  0
VERTEX
  8
LAYER_1
 62
   250
 10
24.65956451697581
 20
-25.54422207939515
  0
VERTEX
  8
LAYER_1
 62
   250
 10
24.37817485145237
 20
-25.62958070123307
  0
VERTEX
  8
LAYER_1
 62
   250
 10
24.1188446504706
 20
-25.76819558154618
  0
VERTEX
  8
LAYER_1
 62
   250
 10
23.89153982822018
 20
-25.95473982822018
  0
VERTEX
  8
LAYER_1
 62
   250
 10
23.70499558154618
 20
-26.1820446504706
  0
VERTEX
  8
LAYER_1
 62
   250
 10
23.56638070123307
 20
-26.44137485145237
  0
VERTEX
  8
LAYER_1
 62
   250
 10
23.48102207939516
 20
-26.72276451697581
  0
VERTEX
  8
LAYER_1
 62
   250
 10
23.4522
 20
-27.0154
  0
VERTEX
  8
LAYER_1
 62
   250
 10
23.48102207939516
 20
-27.30803548302419
  0
VERTEX
  8
LAYER_1
 62
   250
 10
23.56638070123307
 20
-27.58942514854763
  0
VERTEX
  8
LAYER_1
 62
   250
 10
23.70499558154618
 20
-27.8487553495294
  0
VERTEX
  8
LAYER_1
 62
   250
 10
23.89153982822018
 20
-28.07606017177982
  0
VERTEX
  8
LAYER_1
 62
   250
 10
24.1188446504706
 20
-28.26260441845382
  0
VERTEX
  8
LAYER_1
 62
   250
 10
24.37817485145237
 20
-28.40121929876693
  0
VERTEX
  8
LAYER_1
 62
   250
 10
24.65956451697581
 20
-28.48657792060484
  0
VERTEX
  8
LAYER_1
 62
   250
 10
24.9522
 20
-28.5154
  0
VERTEX
  8
LAYER_1
 62
   250
 10
25.2448354830242
 20
-28.48657792060484
  0
VERTEX
  8
LAYER_1
 62
   250
 10
25.52622514854764
 20
-28.40121929876693
  0
VERTEX
  8
LAYER_1
 62
   250
 10
25.78555534952941
 20
-28.26260441845382
  0
VERTEX
  8
LAYER_1
 62
   250
 10
26.01286017177982
 20
-28.07606017177982
  0
VERTEX
  8
LAYER_1
 62
   250
 10
26.19940441845382
 20
-27.8487553495294
  0
VERTEX
  8
LAYER_1
 62
   250
 10
26.33801929876693
 20
-27.58942514854763
  0
VERTEX
  8
LAYER_1
 62
   250
 10
26.42337792060485
 20
-27.30803548302419
  0
VERTEX
  8
LAYER_1
 62
   250
 10
26.4522
 20
-27.0154
  0
VERTEX
  8
LAYER_1
 62
   250
 10
26.42337792060485
 20
-26.7227645169758
  0
VERTEX
  8
LAYER_1
 62
   250
 10
26.33801929876693
 20
-26.44137485145236
  0
VERTEX
  8
LAYER_1
 62
   250
 10
26.19940441845382
 20
-26.18204465047059
  0
VERTEX
  8
LAYER_1
 62
   250
 10
26.01286017177982
 20
-25.95473982822017
  0
VERTEX
  8
LAYER_1
 62
   250
 10
25.7855553495294
 20
-25.76819558154618
  0
VERTEX
  8
LAYER_1
 62
   250
 10
25.52622514854763
 20
-25.62958070123307
  0
VERTEX
  8
LAYER_1
 62
   250
 10
25.24483548302419
 20
-25.54422207939515
  0
SEQEND
  8
LAYER_1
 62
   250
  0
POLYLINE
  8
20
 62
   250
 66
     1
  0
VERTEX
  8
20
 62
   250
 10
11.538
 20
32.2644
  0
VERTEX
  8
20
 62
   250
 10
11.3552
 20
30.3204
  0
VERTEX
  8
20
 62
   250
 10
10.8307
 20
28.5097
  0
VERTEX
  8
20
 62
   250
 10
10.001
 20
26.8712
  0
VERTEX
  8
20
 62
   250
 10
8.902
 20
25.4436
  0
VERTEX
  8
20
 62
   250
 10
7.57
 20
24.2657
  0
VERTEX
  8
20
 62
   250
 10
6.0412
 20
23.3763
  0
VERTEX
  8
20
 62
   250
 10
4.3518
 20
22.8142
  0
VERTEX
  8
20
 62
   250
 10
2.538
 20
22.6182
  0
VERTEX
  8
20
 62
   250
 10
0.7242
 20
22.8142
  0
VERTEX
  8
20
 62
   250
 10
-0.9652
 20
23.3763
  0
VERTEX
  8
20
 62
   250
 10
-2.494
 20
24.2657
  0
VERTEX
  8
20
 62
   250
 10
-3.826
 20
25.4436
  0
VERTEX
  8
20
 62
   250
 10
-4.925
 20
26.8712
  0
VERTEX
  8
20
 62
   250
 10
-5.7547
 20
28.5097
  0
VERTEX
  8
20
 62
   250
 10
-6.2792
 20
30.3204
  0
VERTEX
  8
20
 62
   250
 10
-6.462
 20
32.2644
  0
SEQEND
  8
20
 62
   250
  0
POLYLINE
  8
20
 62
   250
 66
     1
  0
VERTEX
  8
20
 62
   250
 10
1.0378
 20
34.2172
  0
VERTEX
  8
20
 62
   250
 10
1.0378
 20
43.3316
  0
SEQEND
  8
20
 62
   250
  0
POLYLINE
  8
20
 62
   250
 66
     1
  0
VERTEX
  8
20
 62
   250
 10
4.0376
 20
34.2034
  0
VERTEX
  8
20
 62
   250
 10
4.0376
 20
43.3701
  0
SEQEND
  8
20
 62
   250
  0
POLYLINE
  8
20
 62
   250
 66
     1
  0
VERTEX
  8
20
 62
   250
 10
-6.4576
 20
31.9608
  0
VERTEX
  8
20
 62
   250
 10
-6.4575
 20
31.957
  0
SEQEND
  8
20
 62
   250
  0
POLYLINE
  8
20
 62
   250
 66
     1
  0
VERTEX
  8
20
 62
   250
 10
-6.462
 20
32.2644
  0
VERTEX
  8
20
 62
   250
 10
1.0996
 20
34.3026
  0
SEQEND
  8
20
 62
   250
  0
POLYLINE
  8
20
 62
   250
 66
     1
  0
VERTEX
  8
20
 62
   250
 10
3.9855
 20
34.3002
  0
VERTEX
  8
20
 62
   250
 10
11.538
 20
32.2644
  0
SEQEND
  8
20
 62
   250
  0
POLYLINE
  8
20
 62
   250
 66
     1
  0
VERTEX
  8
20
 62
   250
 10
1.038
 20
43.301
  0
VERTEX
  8
20
 62
   250
 10
1.0685
 20
43.446
  0
VERTEX
  8
20
 62
   250
 10
1.1559
 20
43.5811
  0
VERTEX
  8
20
 62
   250
 10
1.2942
 20
43.7033
  0
VERTEX
  8
20
 62
   250
 10
1.4774
 20
43.8098
  0
VERTEX
  8
20
 62
   250
 10
1.6993
 20
43.8977
  0
VERTEX
  8
20
 62
   250
 10
1.9541
 20
43.964
  0
VERTEX
  8
20
 62
   250
 10
2.2357
 20
44.006
  0
VERTEX
  8
20
 62
   250
 10
2.538
 20
44.0206
  0
VERTEX
  8
20
 62
   250
 10
2.8403
 20
44.006
  0
VERTEX
  8
20
 62
   250
 10
3.1219
 20
43.964
  0
VERTEX
  8
20
 62
   250
 10
3.3767
 20
43.8977
  0
VERTEX
  8
20
 62
   250
 10
3.5987
 20
43.8098
  0
VERTEX
  8
20
 62
   250
 10
3.7818
 20
43.7033
  0
VERTEX
  8
20
 62
   250
 10
3.9201
 20
43.5811
  0
VERTEX
  8
20
 62
   250
 10
4.0075
 20
43.446
  0
VERTEX
  8
20
 62
   250
 10
4.038
 20
43.301
  0
SEQEND
  8
20
 62
   250
  0
ENDSEC
  0
EOF
