  0
SECTION
  2
HEADER
  9
$ACADVER
  1
AC1002
  9
$INSBASE
 10
0.0
 20
0.0
  9
$EXTMIN
 10
-46.9997
 20
-43.7754
  9
$EXTMAX
 10
52.0765
 20
55.3008
  9
$LIMMIN
 10
0.0
 20
0.0
  9
$LIMMAX
 10
12.0
 20
9.0
  9
$ORTHOMODE
 70
     0
  9
$REGENMODE
 70
     1
  9
$FILLMODE
 70
     1
  9
$QTEXTMODE
 70
     0
  9
$DRAGMODE
 70
     2
  9
$LTSCALE
 40
1.0
  9
$OSMODE
 70
    37
  9
$ATTMODE
 70
     1
  9
$TEXTSIZE
 40
0.2
  9
$TRACEWID
 40
0.05
  9
$TEXTSTYLE
  7
STANDARD
  9
$CLAYER
  8
0
  9
$CELTYPE
  6
BYLAYER
  9
$CECOLOR
 62
   256
  9
$DIMSCALE
 40
1.0
  9
$DIMASZ
 40
0.18
  9
$DIMEXO
 40
0.0625
  9
$DIMDLI
 40
0.38
  9
$DIMRND
 40
0.0
  9
$DIMDLE
 40
0.0
  9
$DIMEXE
 40
0.18
  9
$DIMTP
 40
0.0
  9
$DIMTM
 40
0.0
  9
$DIMTXT
 40
0.18
  9
$DIMCEN
 40
0.09
  9
$DIMTSZ
 40
0.0
  9
$DIMTOL
 70
     0
  9
$DIMLIM
 70
     0
  9
$DIMTIH
 70
     1
  9
$DIMTOH
 70
     1
  9
$DIMSE1
 70
     0
  9
$DIMSE2
 70
     0
  9
$DIMTAD
 70
     0
  9
$DIMZIN
 70
     0
  9
$DIMBLK
  1

  9
$LUNITS
 70
     2
  9
$LUPREC
 70
     4
  9
$SKETCHINC
 40
0.1
  9
$FILLETRAD
 40
0.5
  9
$AUNITS
 70
     0
  9
$AUPREC
 70
     0
  9
$MENU
  1
.
  9
$ELEVATION
 40
0.0
  9
$THICKNESS
 40
0.0
  9
$LIMCHECK
 70
     0
  9
$CHAMFERA
 40
0.0
  9
$CHAMFERB
 40
0.0
  9
$SKPOLY
 70
     0
  9
$TDCREATE
 40
2459236.313904792
  9
$TDUPDATE
 40
2459236.313904815
  9
$TDINDWG
 40
0.0000000116
  9
$TDUSRTIMER
 40
0.0000000116
  9
$USRTIMER
 70
     1
  9
$ANGBASE
 50
0.0
  9
$ANGDIR
 70
     0
  9
$PDMODE
 70
     0
  9
$PDSIZE
 40
0.0
  9
$PLINEWID
 40
0.0
  9
$COORDS
 70
     1
  9
$SURFTAB1
 70
     6
  9
$SURFTAB2
 70
     6
  9
$SURFTYPE
 70
     6
  9
$SURFU
 70
     6
  9
$SURFV
 70
     6
  9
$UCSNAME
  2

  9
$UCSORG
 10
0.0
 20
0.0
 30
0.0
  9
$UCSXDIR
 10
1.0
 20
0.0
 30
0.0
  9
$UCSYDIR
 10
0.0
 20
1.0
 30
0.0
  9
$USERI1
 70
     0
  9
$USERI2
 70
     0
  9
$USERI3
 70
     0
  9
$USERI4
 70
     0
  9
$USERI5
 70
     0
  9
$USERR1
 40
0.0
  9
$USERR2
 40
0.0
  9
$USERR3
 40
0.0
  9
$USERR4
 40
0.0
  9
$USERR5
 40
0.0
  0
ENDSEC
  0
SECTION
  2
TABLES
  0
TABLE
  2
LTYPE
 70
     1
  0
LTYPE
  2
CONTINUOUS
 70
     0
  3
Solid line
 72
    65
 73
     0
 40
0.0
  0
ENDTAB
  0
TABLE
  2
LAYER
 70
     2
  0
LAYER
  2
0
 70
     0
 62
     7
  6
CONTINUOUS
  0
LAYER
  2
LAYER_1
 70
     0
 62
     7
  6
CONTINUOUS
  0
ENDTAB
  0
TABLE
  2
STYLE
 70
     1
  0
STYLE
  2
STANDARD
 70
     0
 40
0.0
 41
1.0
 50
0.0
 71
     0
 42
0.2
  3
txt
  4

  0
ENDTAB
  0
TABLE
  2
VIEW
 70
     0
  0
ENDTAB
  0
ENDSEC
  0
SECTION
  2
BLOCKS
  0
ENDSEC
  0
SECTION
  2
ENTITIES
  0
POLYLINE
  8
LAYER_1
 62
   250
 66
     1
 70
     1
  0
VERTEX
  8
LAYER_1
 62
   250
 10
2.5384
 20
55.2627
  0
VERTEX
  8
LAYER_1
 62
   250
 10
-7.118570939798349
 20
54.31157137995991
  0
VERTEX
  8
LAYER_1
 62
   250
 10
-16.40442990207195
 20
51.49473685930869
  0
VERTEX
  8
LAYER_1
 62
   250
 10
-24.96232653447031
 20
46.92044580897599
  0
VERTEX
  8
LAYER_1
 62
   250
 10
-32.46338566873411
 20
40.76448566873411
  0
VERTEX
  8
LAYER_1
 62
   250
 10
-38.61934580897599
 20
33.26342653447031
  0
VERTEX
  8
LAYER_1
 62
   250
 10
-43.19363685930869
 20
24.70552990207194
  0
VERTEX
  8
LAYER_1
 62
   250
 10
-46.0104713799599
 20
15.41967093979835
  0
VERTEX
  8
LAYER_1
 62
   250
 10
-46.9616
 20
5.762700000000002
  0
VERTEX
  8
LAYER_1
 62
   250
 10
-46.0104713799599
 20
-3.894270939798345
  0
VERTEX
  8
LAYER_1
 62
   250
 10
-43.19363685930869
 20
-13.18012990207194
  0
VERTEX
  8
LAYER_1
 62
   250
 10
-38.61934580897599
 20
-21.7380265344703
  0
VERTEX
  8
LAYER_1
 62
   250
 10
-32.46338566873411
 20
-29.2390856687341
  0
VERTEX
  8
LAYER_1
 62
   250
 10
-24.96232653447031
 20
-35.39504580897599
  0
VERTEX
  8
LAYER_1
 62
   250
 10
-16.40442990207193
 20
-39.9693368593087
  0
VERTEX
  8
LAYER_1
 62
   250
 10
-7.118570939798322
 20
-42.78617137995991
  0
VERTEX
  8
LAYER_1
 62
   250
 10
2.538400000000038
 20
-43.7373
  0
VERTEX
  8
LAYER_1
 62
   250
 10
12.1953709397984
 20
-42.7861713799599
  0
VERTEX
  8
LAYER_1
 62
   250
 10
21.481229902072
 20
-39.96933685930867
  0
VERTEX
  8
LAYER_1
 62
   250
 10
30.03912653447037
 20
-35.39504580897595
  0
VERTEX
  8
LAYER_1
 62
   250
 10
37.54018566873416
 20
-29.23908566873405
  0
VERTEX
  8
LAYER_1
 62
   250
 10
43.69614580897604
 20
-21.73802653447024
  0
VERTEX
  8
LAYER_1
 62
   250
 10
48.27043685930874
 20
-13.18012990207185
  0
VERTEX
  8
LAYER_1
 62
   250
 10
51.08727137995993
 20
-3.894270939798241
  0
VERTEX
  8
LAYER_1
 62
   250
 10
52.0384
 20
5.762700000000122
  0
VERTEX
  8
LAYER_1
 62
   250
 10
51.08727137995988
 20
15.41967093979848
  0
VERTEX
  8
LAYER_1
 62
   250
 10
48.27043685930864
 20
24.70552990207208
  0
VERTEX
  8
LAYER_1
 62
   250
 10
43.69614580897591
 20
33.26342653447044
  0
VERTEX
  8
LAYER_1
 62
   250
 10
37.54018566873399
 20
40.76448566873422
  0
VERTEX
  8
LAYER_1
 62
   250
 10
30.03912653447016
 20
46.92044580897609
  0
VERTEX
  8
LAYER_1
 62
   250
 10
21.48122990207177
 20
51.49473685930877
  0
VERTEX
  8
LAYER_1
 62
   250
 10
12.19537093979816
 20
54.31157137995995
  0
SEQEND
  8
LAYER_1
 62
   250
  0
POLYLINE
  8
LAYER_1
 62
   250
 66
     1
 70
     1
  0
VERTEX
  8
LAYER_1
 62
   250
 10
-30.0373
 20
17.4788
  0
VERTEX
  8
LAYER_1
 62
   250
 10
-30.32993548302419
 20
17.44997792060484
  0
VERTEX
  8
LAYER_1
 62
   250
 10
-30.61132514854763
 20
17.36461929876693
  0
VERTEX
  8
LAYER_1
 62
   250
 10
-30.8706553495294
 20
17.22600441845382
  0
VERTEX
  8
LAYER_1
 62
   250
 10
-31.09796017177982
 20
17.03946017177982
  0
VERTEX
  8
LAYER_1
 62
   250
 10
-31.28450441845382
 20
16.8121553495294
  0
VERTEX
  8
LAYER_1
 62
   250
 10
-31.42311929876693
 20
16.55282514854763
  0
VERTEX
  8
LAYER_1
 62
   250
 10
-31.50847792060484
 20
16.27143548302419
  0
VERTEX
  8
LAYER_1
 62
   250
 10
-31.5373
 20
15.9788
  0
VERTEX
  8
LAYER_1
 62
   250
 10
-31.50847792060484
 20
15.68616451697581
  0
VERTEX
  8
LAYER_1
 62
   250
 10
-31.42311929876693
 20
15.40477485145236
  0
VERTEX
  8
LAYER_1
 62
   250
 10
-31.28450441845382
 20
15.1454446504706
  0
VERTEX
  8
LAYER_1
 62
   250
 10
-31.09796017177982
 20
14.91813982822018
  0
VERTEX
  8
LAYER_1
 62
   250
 10
-30.8706553495294
 20
14.73159558154618
  0
VERTEX
  8
LAYER_1
 62
   250
 10
-30.61132514854763
 20
14.59298070123307
  0
VERTEX
  8
LAYER_1
 62
   250
 10
-30.32993548302419
 20
14.50762207939515
  0
VERTEX
  8
LAYER_1
 62
   250
 10
-30.0373
 20
14.4788
  0
VERTEX
  8
LAYER_1
 62
   250
 10
-29.7446645169758
 20
14.50762207939515
  0
VERTEX
  8
LAYER_1
 62
   250
 10
-29.46327485145236
 20
14.59298070123307
  0
VERTEX
  8
LAYER_1
 62
   250
 10
-29.20394465047059
 20
14.73159558154618
  0
VERTEX
  8
LAYER_1
 62
   250
 10
-28.97663982822018
 20
14.91813982822018
  0
VERTEX
  8
LAYER_1
 62
   250
 10
-28.79009558154618
 20
15.1454446504706
  0
VERTEX
  8
LAYER_1
 62
   250
 10
-28.65148070123307
 20
15.40477485145237
  0
VERTEX
  8
LAYER_1
 62
   250
 10
-28.56612207939515
 20
15.68616451697581
  0
VERTEX
  8
LAYER_1
 62
   250
 10
-28.5373
 20
15.9788
  0
VERTEX
  8
LAYER_1
 62
   250
 10
-28.56612207939515
 20
16.2714354830242
  0
VERTEX
  8
LAYER_1
 62
   250
 10
-28.65148070123307
 20
16.55282514854764
  0
VERTEX
  8
LAYER_1
 62
   250
 10
-28.79009558154618
 20
16.81215534952941
  0
VERTEX
  8
LAYER_1
 62
   250
 10
-28.97663982822018
 20
17.03946017177983
  0
VERTEX
  8
LAYER_1
 62
   250
 10
-29.2039446504706
 20
17.22600441845382
  0
VERTEX
  8
LAYER_1
 62
   250
 10
-29.46327485145237
 20
17.36461929876693
  0
VERTEX
  8
LAYER_1
 62
   250
 10
-29.74466451697581
 20
17.44997792060485
  0
SEQEND
  8
LAYER_1
 62
   250
  0
POLYLINE
  8
LAYER_1
 62
   250
 66
     1
 70
     1
  0
VERTEX
  8
LAYER_1
 62
   250
 10
34.8822
 20
17.2846
  0
VERTEX
  8
LAYER_1
 62
   250
 10
34.58956451697581
 20
17.25577792060485
  0
VERTEX
  8
LAYER_1
 62
   250
 10
34.30817485145236
 20
17.17041929876693
  0
VERTEX
  8
LAYER_1
 62
   250
 10
34.04884465047059
 20
17.03180441845382
  0
VERTEX
  8
LAYER_1
 62
   250
 10
33.82153982822017
 20
16.84526017177982
  0
VERTEX
  8
LAYER_1
 62
   250
 10
33.63499558154618
 20
16.6179553495294
  0
VERTEX
  8
LAYER_1
 62
   250
 10
33.49638070123306
 20
16.35862514854763
  0
VERTEX
  8
LAYER_1
 62
   250
 10
33.41102207939515
 20
16.07723548302419
  0
VERTEX
  8
LAYER_1
 62
   250
 10
33.3822
 20
15.7846
  0
VERTEX
  8
LAYER_1
 62
   250
 10
33.41102207939515
 20
15.49196451697581
  0
VERTEX
  8
LAYER_1
 62
   250
 10
33.49638070123306
 20
15.21057485145236
  0
VERTEX
  8
LAYER_1
 62
   250
 10
33.63499558154618
 20
14.9512446504706
  0
VERTEX
  8
LAYER_1
 62
   250
 10
33.82153982822017
 20
14.72393982822018
  0
VERTEX
  8
LAYER_1
 62
   250
 10
34.04884465047059
 20
14.53739558154618
  0
VERTEX
  8
LAYER_1
 62
   250
 10
34.30817485145236
 20
14.39878070123307
  0
VERTEX
  8
LAYER_1
 62
   250
 10
34.58956451697581
 20
14.31342207939515
  0
VERTEX
  8
LAYER_1
 62
   250
 10
34.8822
 20
14.2846
  0
VERTEX
  8
LAYER_1
 62
   250
 10
35.17483548302419
 20
14.31342207939515
  0
VERTEX
  8
LAYER_1
 62
   250
 10
35.45622514854763
 20
14.39878070123307
  0
VERTEX
  8
LAYER_1
 62
   250
 10
35.7155553495294
 20
14.53739558154618
  0
VERTEX
  8
LAYER_1
 62
   250
 10
35.94286017177982
 20
14.72393982822018
  0
VERTEX
  8
LAYER_1
 62
   250
 10
36.12940441845382
 20
14.9512446504706
  0
VERTEX
  8
LAYER_1
 62
   250
 10
36.26801929876693
 20
15.21057485145237
  0
VERTEX
  8
LAYER_1
 62
   250
 10
36.35337792060484
 20
15.49196451697581
  0
VERTEX
  8
LAYER_1
 62
   250
 10
36.3822
 20
15.7846
  0
VERTEX
  8
LAYER_1
 62
   250
 10
36.35337792060484
 20
16.0772354830242
  0
VERTEX
  8
LAYER_1
 62
   250
 10
36.26801929876692
 20
16.35862514854764
  0
VERTEX
  8
LAYER_1
 62
   250
 10
36.12940441845381
 20
16.61795534952941
  0
VERTEX
  8
LAYER_1
 62
   250
 10
35.94286017177981
 20
16.84526017177982
  0
VERTEX
  8
LAYER_1
 62
   250
 10
35.7155553495294
 20
17.03180441845382
  0
VERTEX
  8
LAYER_1
 62
   250
 10
35.45622514854762
 20
17.17041929876693
  0
VERTEX
  8
LAYER_1
 62
   250
 10
35.17483548302418
 20
17.25577792060485
  0
SEQEND
  8
LAYER_1
 62
   250
  0
POLYLINE
  8
LAYER_1
 62
   250
 66
     1
 70
     1
  0
VERTEX
  8
LAYER_1
 62
   250
 10
-12.0994
 20
-29.7619
  0
VERTEX
  8
LAYER_1
 62
   250
 10
-12.39203548302419
 20
-29.79072207939516
  0
VERTEX
  8
LAYER_1
 62
   250
 10
-12.67342514854763
 20
-29.87608070123307
  0
VERTEX
  8
LAYER_1
 62
   250
 10
-12.9327553495294
 20
-30.01469558154618
  0
VERTEX
  8
LAYER_1
 62
   250
 10
-13.16006017177982
 20
-30.20123982822018
  0
VERTEX
  8
LAYER_1
 62
   250
 10
-13.34660441845382
 20
-30.4285446504706
  0
VERTEX
  8
LAYER_1
 62
   250
 10
-13.48521929876693
 20
-30.68787485145237
  0
VERTEX
  8
LAYER_1
 62
   250
 10
-13.57057792060484
 20
-30.96926451697581
  0
VERTEX
  8
LAYER_1
 62
   250
 10
-13.5994
 20
-31.2619
  0
VERTEX
  8
LAYER_1
 62
   250
 10
-13.57057792060484
 20
-31.55453548302419
  0
VERTEX
  8
LAYER_1
 62
   250
 10
-13.48521929876693
 20
-31.83592514854763
  0
VERTEX
  8
LAYER_1
 62
   250
 10
-13.34660441845382
 20
-32.0952553495294
  0
VERTEX
  8
LAYER_1
 62
   250
 10
-13.16006017177982
 20
-32.32256017177982
  0
VERTEX
  8
LAYER_1
 62
   250
 10
-12.9327553495294
 20
-32.50910441845382
  0
VERTEX
  8
LAYER_1
 62
   250
 10
-12.67342514854763
 20
-32.64771929876693
  0
VERTEX
  8
LAYER_1
 62
   250
 10
-12.39203548302419
 20
-32.73307792060485
  0
VERTEX
  8
LAYER_1
 62
   250
 10
-12.0994
 20
-32.7619
  0
VERTEX
  8
LAYER_1
 62
   250
 10
-11.80676451697581
 20
-32.73307792060485
  0
VERTEX
  8
LAYER_1
 62
   250
 10
-11.52537485145236
 20
-32.64771929876693
  0
VERTEX
  8
LAYER_1
 62
   250
 10
-11.26604465047059
 20
-32.50910441845382
  0
VERTEX
  8
LAYER_1
 62
   250
 10
-11.03873982822018
 20
-32.32256017177982
  0
VERTEX
  8
LAYER_1
 62
   250
 10
-10.85219558154618
 20
-32.0952553495294
  0
VERTEX
  8
LAYER_1
 62
   250
 10
-10.71358070123307
 20
-31.83592514854763
  0
VERTEX
  8
LAYER_1
 62
   250
 10
-10.62822207939515
 20
-31.55453548302419
  0
VERTEX
  8
LAYER_1
 62
   250
 10
-10.5994
 20
-31.2619
  0
VERTEX
  8
LAYER_1
 62
   250
 10
-10.62822207939515
 20
-30.96926451697581
  0
VERTEX
  8
LAYER_1
 62
   250
 10
-10.71358070123307
 20
-30.68787485145236
  0
VERTEX
  8
LAYER_1
 62
   250
 10
-10.85219558154618
 20
-30.42854465047059
  0
VERTEX
  8
LAYER_1
 62
   250
 10
-11.03873982822018
 20
-30.20123982822017
  0
VERTEX
  8
LAYER_1
 62
   250
 10
-11.2660446504706
 20
-30.01469558154618
  0
VERTEX
  8
LAYER_1
 62
   250
 10
-11.52537485145237
 20
-29.87608070123307
  0
VERTEX
  8
LAYER_1
 62
   250
 10
-11.80676451697581
 20
-29.79072207939515
  0
SEQEND
  8
LAYER_1
 62
   250
  0
POLYLINE
  8
LAYER_1
 62
   250
 66
     1
 70
     1
  0
VERTEX
  8
LAYER_1
 62
   250
 10
-20.0478
 20
-25.5154
  0
VERTEX
  8
LAYER_1
 62
   250
 10
-20.34043548302419
 20
-25.54422207939515
  0
VERTEX
  8
LAYER_1
 62
   250
 10
-20.62182514854763
 20
-25.62958070123307
  0
VERTEX
  8
LAYER_1
 62
   250
 10
-20.8811553495294
 20
-25.76819558154618
  0
VERTEX
  8
LAYER_1
 62
   250
 10
-21.10846017177982
 20
-25.95473982822018
  0
VERTEX
  8
LAYER_1
 62
   250
 10
-21.29500441845382
 20
-26.1820446504706
  0
VERTEX
  8
LAYER_1
 62
   250
 10
-21.43361929876693
 20
-26.44137485145237
  0
VERTEX
  8
LAYER_1
 62
   250
 10
-21.51897792060484
 20
-26.72276451697581
  0
VERTEX
  8
LAYER_1
 62
   250
 10
-21.5478
 20
-27.0154
  0
VERTEX
  8
LAYER_1
 62
   250
 10
-21.51897792060484
 20
-27.30803548302419
  0
VERTEX
  8
LAYER_1
 62
   250
 10
-21.43361929876693
 20
-27.58942514854763
  0
VERTEX
  8
LAYER_1
 62
   250
 10
-21.29500441845382
 20
-27.8487553495294
  0
VERTEX
  8
LAYER_1
 62
   250
 10
-21.10846017177982
 20
-28.07606017177982
  0
VERTEX
  8
LAYER_1
 62
   250
 10
-20.8811553495294
 20
-28.26260441845382
  0
VERTEX
  8
LAYER_1
 62
   250
 10
-20.62182514854763
 20
-28.40121929876693
  0
VERTEX
  8
LAYER_1
 62
   250
 10
-20.34043548302419
 20
-28.48657792060484
  0
VERTEX
  8
LAYER_1
 62
   250
 10
-20.0478
 20
-28.5154
  0
VERTEX
  8
LAYER_1
 62
   250
 10
-19.7551645169758
 20
-28.48657792060484
  0
VERTEX
  8
LAYER_1
 62
   250
 10
-19.47377485145236
 20
-28.40121929876693
  0
VERTEX
  8
LAYER_1
 62
   250
 10
-19.21444465047059
 20
-28.26260441845382
  0
VERTEX
  8
LAYER_1
 62
   250
 10
-18.98713982822018
 20
-28.07606017177982
  0
VERTEX
  8
LAYER_1
 62
   250
 10
-18.80059558154618
 20
-27.8487553495294
  0
VERTEX
  8
LAYER_1
 62
   250
 10
-18.66198070123307
 20
-27.58942514854763
  0
VERTEX
  8
LAYER_1
 62
   250
 10
-18.57662207939515
 20
-27.30803548302419
  0
VERTEX
  8
LAYER_1
 62
   250
 10
-18.5478
 20
-27.0154
  0
VERTEX
  8
LAYER_1
 62
   250
 10
-18.57662207939515
 20
-26.7227645169758
  0
VERTEX
  8
LAYER_1
 62
   250
 10
-18.66198070123307
 20
-26.44137485145236
  0
VERTEX
  8
LAYER_1
 62
   250
 10
-18.80059558154618
 20
-26.18204465047059
  0
VERTEX
  8
LAYER_1
 62
   250
 10
-18.98713982822018
 20
-25.95473982822017
  0
VERTEX
  8
LAYER_1
 62
   250
 10
-19.2144446504706
 20
-25.76819558154618
  0
VERTEX
  8
LAYER_1
 62
   250
 10
-19.47377485145237
 20
-25.62958070123307
  0
VERTEX
  8
LAYER_1
 62
   250
 10
-19.75516451697581
 20
-25.54422207939515
  0
SEQEND
  8
LAYER_1
 62
   250
  0
POLYLINE
  8
LAYER_1
 62
   250
 66
     1
 70
     1
  0
VERTEX
  8
LAYER_1
 62
   250
 10
2.371
 20
-32.7337
  0
VERTEX
  8
LAYER_1
 62
   250
 10
2.078364516975808
 20
-32.76252207939515
  0
VERTEX
  8
LAYER_1
 62
   250
 10
1.796974851452365
 20
-32.84788070123307
  0
VERTEX
  8
LAYER_1
 62
   250
 10
1.537644650470597
 20
-32.98649558154618
  0
VERTEX
  8
LAYER_1
 62
   250
 10
1.310339828220179
 20
-33.17303982822018
  0
VERTEX
  8
LAYER_1
 62
   250
 10
1.123795581546182
 20
-33.40034465047059
  0
VERTEX
  8
LAYER_1
 62
   250
 10
0.98518070123307
 20
-33.65967485145237
  0
VERTEX
  8
LAYER_1
 62
   250
 10
0.8998220793951544
 20
-33.94106451697581
  0
VERTEX
  8
LAYER_1
 62
   250
 10
0.871
 20
-34.2337
  0
VERTEX
  8
LAYER_1
 62
   250
 10
0.8998220793951544
 20
-34.52633548302419
  0
VERTEX
  8
LAYER_1
 62
   250
 10
0.98518070123307
 20
-34.80772514854763
  0
VERTEX
  8
LAYER_1
 62
   250
 10
1.123795581546182
 20
-35.0670553495294
  0
VERTEX
  8
LAYER_1
 62
   250
 10
1.310339828220179
 20
-35.29436017177982
  0
VERTEX
  8
LAYER_1
 62
   250
 10
1.537644650470597
 20
-35.48090441845382
  0
VERTEX
  8
LAYER_1
 62
   250
 10
1.796974851452366
 20
-35.61951929876693
  0
VERTEX
  8
LAYER_1
 62
   250
 10
2.078364516975808
 20
-35.70487792060484
  0
VERTEX
  8
LAYER_1
 62
   250
 10
2.371000000000001
 20
-35.7337
  0
VERTEX
  8
LAYER_1
 62
   250
 10
2.663635483024194
 20
-35.70487792060484
  0
VERTEX
  8
LAYER_1
 62
   250
 10
2.945025148547636
 20
-35.61951929876693
  0
VERTEX
  8
LAYER_1
 62
   250
 10
3.204355349529405
 20
-35.48090441845382
  0
VERTEX
  8
LAYER_1
 62
   250
 10
3.431660171779823
 20
-35.29436017177982
  0
VERTEX
  8
LAYER_1
 62
   250
 10
3.61820441845382
 20
-35.0670553495294
  0
VERTEX
  8
LAYER_1
 62
   250
 10
3.756819298766931
 20
-34.80772514854763
  0
VERTEX
  8
LAYER_1
 62
   250
 10
3.842177920604846
 20
-34.52633548302419
  0
VERTEX
  8
LAYER_1
 62
   250
 10
3.871
 20
-34.23369999999999
  0
VERTEX
  8
LAYER_1
 62
   250
 10
3.842177920604845
 20
-33.9410645169758
  0
VERTEX
  8
LAYER_1
 62
   250
 10
3.756819298766929
 20
-33.65967485145236
  0
VERTEX
  8
LAYER_1
 62
   250
 10
3.618204418453815
 20
-33.40034465047059
  0
VERTEX
  8
LAYER_1
 62
   250
 10
3.431660171779818
 20
-33.17303982822018
  0
VERTEX
  8
LAYER_1
 62
   250
 10
3.204355349529399
 20
-32.98649558154618
  0
VERTEX
  8
LAYER_1
 62
   250
 10
2.94502514854763
 20
-32.84788070123307
  0
VERTEX
  8
LAYER_1
 62
   250
 10
2.663635483024187
 20
-32.76252207939515
  0
SEQEND
  8
LAYER_1
 62
   250
  0
POLYLINE
  8
LAYER_1
 62
   250
 66
     1
 70
     1
  0
VERTEX
  8
LAYER_1
 62
   250
 10
16.943
 20
-29.7619
  0
VERTEX
  8
LAYER_1
 62
   250
 10
16.65036451697581
 20
-29.79072207939516
  0
VERTEX
  8
LAYER_1
 62
   250
 10
16.36897485145237
 20
-29.87608070123307
  0
VERTEX
  8
LAYER_1
 62
   250
 10
16.1096446504706
 20
-30.01469558154618
  0
VERTEX
  8
LAYER_1
 62
   250
 10
15.88233982822018
 20
-30.20123982822018
  0
VERTEX
  8
LAYER_1
 62
   250
 10
15.69579558154618
 20
-30.4285446504706
  0
VERTEX
  8
LAYER_1
 62
   250
 10
15.55718070123307
 20
-30.68787485145237
  0
VERTEX
  8
LAYER_1
 62
   250
 10
15.47182207939516
 20
-30.96926451697581
  0
VERTEX
  8
LAYER_1
 62
   250
 10
15.443
 20
-31.2619
  0
VERTEX
  8
LAYER_1
 62
   250
 10
15.47182207939516
 20
-31.55453548302419
  0
VERTEX
  8
LAYER_1
 62
   250
 10
15.55718070123307
 20
-31.83592514854763
  0
VERTEX
  8
LAYER_1
 62
   250
 10
15.69579558154618
 20
-32.0952553495294
  0
VERTEX
  8
LAYER_1
 62
   250
 10
15.88233982822018
 20
-32.32256017177982
  0
VERTEX
  8
LAYER_1
 62
   250
 10
16.1096446504706
 20
-32.50910441845382
  0
VERTEX
  8
LAYER_1
 62
   250
 10
16.36897485145237
 20
-32.64771929876693
  0
VERTEX
  8
LAYER_1
 62
   250
 10
16.65036451697581
 20
-32.73307792060485
  0
VERTEX
  8
LAYER_1
 62
   250
 10
16.943
 20
-32.7619
  0
VERTEX
  8
LAYER_1
 62
   250
 10
17.2356354830242
 20
-32.73307792060485
  0
VERTEX
  8
LAYER_1
 62
   250
 10
17.51702514854764
 20
-32.64771929876693
  0
VERTEX
  8
LAYER_1
 62
   250
 10
17.77635534952941
 20
-32.50910441845382
  0
VERTEX
  8
LAYER_1
 62
   250
 10
18.00366017177982
 20
-32.32256017177982
  0
VERTEX
  8
LAYER_1
 62
   250
 10
18.19020441845382
 20
-32.0952553495294
  0
VERTEX
  8
LAYER_1
 62
   250
 10
18.32881929876693
 20
-31.83592514854763
  0
VERTEX
  8
LAYER_1
 62
   250
 10
18.41417792060485
 20
-31.55453548302419
  0
VERTEX
  8
LAYER_1
 62
   250
 10
18.443
 20
-31.2619
  0
VERTEX
  8
LAYER_1
 62
   250
 10
18.41417792060485
 20
-30.96926451697581
  0
VERTEX
  8
LAYER_1
 62
   250
 10
18.32881929876693
 20
-30.68787485145236
  0
VERTEX
  8
LAYER_1
 62
   250
 10
18.19020441845382
 20
-30.42854465047059
  0
VERTEX
  8
LAYER_1
 62
   250
 10
18.00366017177982
 20
-30.20123982822017
  0
VERTEX
  8
LAYER_1
 62
   250
 10
17.7763553495294
 20
-30.01469558154618
  0
VERTEX
  8
LAYER_1
 62
   250
 10
17.51702514854763
 20
-29.87608070123307
  0
VERTEX
  8
LAYER_1
 62
   250
 10
17.23563548302419
 20
-29.79072207939515
  0
SEQEND
  8
LAYER_1
 62
   250
  0
POLYLINE
  8
LAYER_1
 62
   250
 66
     1
 70
     1
  0
VERTEX
  8
LAYER_1
 62
   250
 10
24.9522
 20
-25.5154
  0
VERTEX
  8
LAYER_1
 62
   250
 10
24.65956451697581
 20
-25.54422207939515
  0
VERTEX
  8
LAYER_1
 62
   250
 10
24.37817485145237
 20
-25.62958070123307
  0
VERTEX
  8
LAYER_1
 62
   250
 10
24.1188446504706
 20
-25.76819558154618
  0
VERTEX
  8
LAYER_1
 62
   250
 10
23.89153982822018
 20
-25.95473982822018
  0
VERTEX
  8
LAYER_1
 62
   250
 10
23.70499558154618
 20
-26.1820446504706
  0
VERTEX
  8
LAYER_1
 62
   250
 10
23.56638070123307
 20
-26.44137485145237
  0
VERTEX
  8
LAYER_1
 62
   250
 10
23.48102207939516
 20
-26.72276451697581
  0
VERTEX
  8
LAYER_1
 62
   250
 10
23.4522
 20
-27.0154
  0
VERTEX
  8
LAYER_1
 62
   250
 10
23.48102207939516
 20
-27.30803548302419
  0
VERTEX
  8
LAYER_1
 62
   250
 10
23.56638070123307
 20
-27.58942514854763
  0
VERTEX
  8
LAYER_1
 62
   250
 10
23.70499558154618
 20
-27.8487553495294
  0
VERTEX
  8
LAYER_1
 62
   250
 10
23.89153982822018
 20
-28.07606017177982
  0
VERTEX
  8
LAYER_1
 62
   250
 10
24.1188446504706
 20
-28.26260441845382
  0
VERTEX
  8
LAYER_1
 62
   250
 10
24.37817485145237
 20
-28.40121929876693
  0
VERTEX
  8
LAYER_1
 62
   250
 10
24.65956451697581
 20
-28.48657792060484
  0
VERTEX
  8
LAYER_1
 62
   250
 10
24.9522
 20
-28.5154
  0
VERTEX
  8
LAYER_1
 62
   250
 10
25.2448354830242
 20
-28.48657792060484
  0
VERTEX
  8
LAYER_1
 62
   250
 10
25.52622514854764
 20
-28.40121929876693
  0
VERTEX
  8
LAYER_1
 62
   250
 10
25.78555534952941
 20
-28.26260441845382
  0
VERTEX
  8
LAYER_1
 62
   250
 10
26.01286017177982
 20
-28.07606017177982
  0
VERTEX
  8
LAYER_1
 62
   250
 10
26.19940441845382
 20
-27.8487553495294
  0
VERTEX
  8
LAYER_1
 62
   250
 10
26.33801929876693
 20
-27.58942514854763
  0
VERTEX
  8
LAYER_1
 62
   250
 10
26.42337792060485
 20
-27.30803548302419
  0
VERTEX
  8
LAYER_1
 62
   250
 10
26.4522
 20
-27.0154
  0
VERTEX
  8
LAYER_1
 62
   250
 10
26.42337792060485
 20
-26.7227645169758
  0
VERTEX
  8
LAYER_1
 62
   250
 10
26.33801929876693
 20
-26.44137485145236
  0
VERTEX
  8
LAYER_1
 62
   250
 10
26.19940441845382
 20
-26.18204465047059
  0
VERTEX
  8
LAYER_1
 62
   250
 10
26.01286017177982
 20
-25.95473982822017
  0
VERTEX
  8
LAYER_1
 62
   250
 10
25.7855553495294
 20
-25.76819558154618
  0
VERTEX
  8
LAYER_1
 62
   250
 10
25.52622514854763
 20
-25.62958070123307
  0
VERTEX
  8
LAYER_1
 62
   250
 10
25.24483548302419
 20
-25.54422207939515
  0
SEQEND
  8
LAYER_1
 62
   250
  0
POLYLINE
  8
LAYER_1
 62
   250
 66
     1
 70
     1
  0
VERTEX
  8
LAYER_1
 62
   250
 10
-33.2957
 20
2.8949
  0
VERTEX
  8
LAYER_1
 62
   250
 10
-33.58833548302419
 20
2.866077920604845
  0
VERTEX
  8
LAYER_1
 62
   250
 10
-33.86972514854763
 20
2.78071929876693
  0
VERTEX
  8
LAYER_1
 62
   250
 10
-34.1290553495294
 20
2.642104418453818
  0
VERTEX
  8
LAYER_1
 62
   250
 10
-34.35636017177982
 20
2.455560171779822
  0
VERTEX
  8
LAYER_1
 62
   250
 10
-34.54290441845382
 20
2.228255349529404
  0
VERTEX
  8
LAYER_1
 62
   250
 10
-34.68151929876693
 20
1.968925148547635
  0
VERTEX
  8
LAYER_1
 62
   250
 10
-34.76687792060484
 20
1.687535483024193
  0
VERTEX
  8
LAYER_1
 62
   250
 10
-34.7957
 20
1.3949
  0
VERTEX
  8
LAYER_1
 62
   250
 10
-34.76687792060484
 20
1.102264516975808
  0
VERTEX
  8
LAYER_1
 62
   250
 10
-34.68151929876693
 20
0.8208748514523654
  0
VERTEX
  8
LAYER_1
 62
   250
 10
-34.54290441845382
 20
0.5615446504705971
  0
VERTEX
  8
LAYER_1
 62
   250
 10
-34.35636017177982
 20
0.3342398282201788
  0
VERTEX
  8
LAYER_1
 62
   250
 10
-34.1290553495294
 20
0.147695581546182
  0
VERTEX
  8
LAYER_1
 62
   250
 10
-33.86972514854763
 20
0.0090807012330698
  0
VERTEX
  8
LAYER_1
 62
   250
 10
-33.58833548302419
 20
-0.0762779206048458
  0
VERTEX
  8
LAYER_1
 62
   250
 10
-33.2957
 20
-0.1051
  0
VERTEX
  8
LAYER_1
 62
   250
 10
-33.0030645169758
 20
-0.0762779206048452
  0
VERTEX
  8
LAYER_1
 62
   250
 10
-32.72167485145236
 20
0.0090807012330705
  0
VERTEX
  8
LAYER_1
 62
   250
 10
-32.46234465047059
 20
0.1476955815461833
  0
VERTEX
  8
LAYER_1
 62
   250
 10
-32.23503982822017
 20
0.3342398282201804
  0
VERTEX
  8
LAYER_1
 62
   250
 10
-32.04849558154618
 20
0.561544650470599
  0
VERTEX
  8
LAYER_1
 62
   250
 10
-31.90988070123306
 20
0.8208748514523682
  0
VERTEX
  8
LAYER_1
 62
   250
 10
-31.82452207939515
 20
1.102264516975811
  0
VERTEX
  8
LAYER_1
 62
   250
 10
-31.7957
 20
1.394900000000004
  0
VERTEX
  8
LAYER_1
 62
   250
 10
-31.82452207939515
 20
1.687535483024196
  0
VERTEX
  8
LAYER_1
 62
   250
 10
-31.90988070123307
 20
1.968925148547639
  0
VERTEX
  8
LAYER_1
 62
   250
 10
-32.04849558154618
 20
2.228255349529407
  0
VERTEX
  8
LAYER_1
 62
   250
 10
-32.23503982822018
 20
2.455560171779825
  0
VERTEX
  8
LAYER_1
 62
   250
 10
-32.4623446504706
 20
2.642104418453821
  0
VERTEX
  8
LAYER_1
 62
   250
 10
-32.72167485145237
 20
2.780719298766932
  0
VERTEX
  8
LAYER_1
 62
   250
 10
-33.00306451697581
 20
2.866077920604847
  0
SEQEND
  8
LAYER_1
 62
   250
  0
ENDSEC
  0
EOF
