  0
SECTION
  2
HEADER
  9
$ACADVER
  1
AC1002
  9
$INSBASE
 10
0.0
 20
0.0
  9
$EXTMIN
 10
-47.0001
 20
-43.7754
  9
$EXTMAX
 10
52.0761
 20
55.3008
  9
$LIMMIN
 10
0.0
 20
0.0
  9
$LIMMAX
 10
12.0
 20
9.0
  9
$ORTHOMODE
 70
     0
  9
$REGENMODE
 70
     1
  9
$FILLMODE
 70
     1
  9
$QTEXTMODE
 70
     0
  9
$DRAGMODE
 70
     2
  9
$LTSCALE
 40
1.0
  9
$OSMODE
 70
    37
  9
$ATTMODE
 70
     1
  9
$TEXTSIZE
 40
0.2
  9
$TRACEWID
 40
0.05
  9
$TEXTSTYLE
  7
STANDARD
  9
$CLAYER
  8
0
  9
$CELTYPE
  6
BYLAYER
  9
$CECOLOR
 62
   256
  9
$DIMSCALE
 40
1.0
  9
$DIMASZ
 40
0.18
  9
$DIMEXO
 40
0.0625
  9
$DIMDLI
 40
0.38
  9
$DIMRND
 40
0.0
  9
$DIMDLE
 40
0.0
  9
$DIMEXE
 40
0.18
  9
$DIMTP
 40
0.0
  9
$DIMTM
 40
0.0
  9
$DIMTXT
 40
0.18
  9
$DIMCEN
 40
0.09
  9
$DIMTSZ
 40
0.0
  9
$DIMTOL
 70
     0
  9
$DIMLIM
 70
     0
  9
$DIMTIH
 70
     1
  9
$DIMTOH
 70
     1
  9
$DIMSE1
 70
     0
  9
$DIMSE2
 70
     0
  9
$DIMTAD
 70
     0
  9
$DIMZIN
 70
     0
  9
$DIMBLK
  1

  9
$LUNITS
 70
     2
  9
$LUPREC
 70
     4
  9
$SKETCHINC
 40
0.1
  9
$FILLETRAD
 40
0.5
  9
$AUNITS
 70
     0
  9
$AUPREC
 70
     0
  9
$MENU
  1
.
  9
$ELEVATION
 40
0.0
  9
$THICKNESS
 40
0.0
  9
$LIMCHECK
 70
     0
  9
$CHAMFERA
 40
0.0
  9
$CHAMFERB
 40
0.0
  9
$SKPOLY
 70
     0
  9
$TDCREATE
 40
2459236.314994236
  9
$TDUPDATE
 40
2459236.314994248
  9
$TDINDWG
 40
0.0000000116
  9
$TDUSRTIMER
 40
0.0000000116
  9
$USRTIMER
 70
     1
  9
$ANGBASE
 50
0.0
  9
$ANGDIR
 70
     0
  9
$PDMODE
 70
     0
  9
$PDSIZE
 40
0.0
  9
$PLINEWID
 40
0.0
  9
$COORDS
 70
     1
  9
$SURFTAB1
 70
     6
  9
$SURFTAB2
 70
     6
  9
$SURFTYPE
 70
     6
  9
$SURFU
 70
     6
  9
$SURFV
 70
     6
  9
$UCSNAME
  2

  9
$UCSORG
 10
0.0
 20
0.0
 30
0.0
  9
$UCSXDIR
 10
1.0
 20
0.0
 30
0.0
  9
$UCSYDIR
 10
0.0
 20
1.0
 30
0.0
  9
$USERI1
 70
     0
  9
$USERI2
 70
     0
  9
$USERI3
 70
     0
  9
$USERI4
 70
     0
  9
$USERI5
 70
     0
  9
$USERR1
 40
0.0
  9
$USERR2
 40
0.0
  9
$USERR3
 40
0.0
  9
$USERR4
 40
0.0
  9
$USERR5
 40
0.0
  0
ENDSEC
  0
SECTION
  2
TABLES
  0
TABLE
  2
LTYPE
 70
     1
  0
LTYPE
  2
CONTINUOUS
 70
     0
  3
Solid line
 72
    65
 73
     0
 40
0.0
  0
ENDTAB
  0
TABLE
  2
LAYER
 70
     3
  0
LAYER
  2
0
 70
     0
 62
     7
  6
CONTINUOUS
  0
LAYER
  2
LAYER_1
 70
     0
 62
     7
  6
CONTINUOUS
  0
LAYER
  2
20
 70
     0
 62
     7
  6
CONTINUOUS
  0
ENDTAB
  0
TABLE
  2
STYLE
 70
     1
  0
STYLE
  2
STANDARD
 70
     0
 40
0.0
 41
1.0
 50
0.0
 71
     0
 42
0.2
  3
txt
  4

  0
ENDTAB
  0
TABLE
  2
VIEW
 70
     0
  0
ENDTAB
  0
ENDSEC
  0
SECTION
  2
BLOCKS
  0
ENDSEC
  0
SECTION
  2
ENTITIES
  0
POLYLINE
  8
LAYER_1
 62
   250
 66
     1
 70
     1
  0
VERTEX
  8
LAYER_1
 62
   250
 10
2.538
 20
55.2627
  0
VERTEX
  8
LAYER_1
 62
   250
 10
-7.118970939798348
 20
54.31157137995991
  0
VERTEX
  8
LAYER_1
 62
   250
 10
-16.40482990207195
 20
51.49473685930869
  0
VERTEX
  8
LAYER_1
 62
   250
 10
-24.96272653447031
 20
46.92044580897599
  0
VERTEX
  8
LAYER_1
 62
   250
 10
-32.46378566873411
 20
40.76448566873411
  0
VERTEX
  8
LAYER_1
 62
   250
 10
-38.61974580897599
 20
33.26342653447031
  0
VERTEX
  8
LAYER_1
 62
   250
 10
-43.1940368593087
 20
24.70552990207194
  0
VERTEX
  8
LAYER_1
 62
   250
 10
-46.01087137995991
 20
15.41967093979835
  0
VERTEX
  8
LAYER_1
 62
   250
 10
-46.962
 20
5.762700000000002
  0
VERTEX
  8
LAYER_1
 62
   250
 10
-46.01087137995991
 20
-3.894270939798345
  0
VERTEX
  8
LAYER_1
 62
   250
 10
-43.1940368593087
 20
-13.18012990207194
  0
VERTEX
  8
LAYER_1
 62
   250
 10
-38.619745808976
 20
-21.7380265344703
  0
VERTEX
  8
LAYER_1
 62
   250
 10
-32.46378566873411
 20
-29.2390856687341
  0
VERTEX
  8
LAYER_1
 62
   250
 10
-24.96272653447031
 20
-35.39504580897599
  0
VERTEX
  8
LAYER_1
 62
   250
 10
-16.40482990207193
 20
-39.9693368593087
  0
VERTEX
  8
LAYER_1
 62
   250
 10
-7.118970939798322
 20
-42.78617137995991
  0
VERTEX
  8
LAYER_1
 62
   250
 10
2.538000000000038
 20
-43.7373
  0
VERTEX
  8
LAYER_1
 62
   250
 10
12.1949709397984
 20
-42.7861713799599
  0
VERTEX
  8
LAYER_1
 62
   250
 10
21.480829902072
 20
-39.96933685930867
  0
VERTEX
  8
LAYER_1
 62
   250
 10
30.03872653447037
 20
-35.39504580897595
  0
VERTEX
  8
LAYER_1
 62
   250
 10
37.53978566873415
 20
-29.23908566873405
  0
VERTEX
  8
LAYER_1
 62
   250
 10
43.69574580897604
 20
-21.73802653447024
  0
VERTEX
  8
LAYER_1
 62
   250
 10
48.27003685930873
 20
-13.18012990207185
  0
VERTEX
  8
LAYER_1
 62
   250
 10
51.08687137995992
 20
-3.894270939798241
  0
VERTEX
  8
LAYER_1
 62
   250
 10
52.038
 20
5.762700000000122
  0
VERTEX
  8
LAYER_1
 62
   250
 10
51.08687137995987
 20
15.41967093979848
  0
VERTEX
  8
LAYER_1
 62
   250
 10
48.27003685930863
 20
24.70552990207208
  0
VERTEX
  8
LAYER_1
 62
   250
 10
43.6957458089759
 20
33.26342653447044
  0
VERTEX
  8
LAYER_1
 62
   250
 10
37.53978566873398
 20
40.76448566873422
  0
VERTEX
  8
LAYER_1
 62
   250
 10
30.03872653447016
 20
46.92044580897609
  0
VERTEX
  8
LAYER_1
 62
   250
 10
21.48082990207177
 20
51.49473685930877
  0
VERTEX
  8
LAYER_1
 62
   250
 10
12.19497093979816
 20
54.31157137995995
  0
SEQEND
  8
LAYER_1
 62
   250
  0
POLYLINE
  8
LAYER_1
 62
   250
 66
     1
 70
     1
  0
VERTEX
  8
LAYER_1
 62
   250
 10
-30.0373
 20
17.4788
  0
VERTEX
  8
LAYER_1
 62
   250
 10
-30.32993548302419
 20
17.44997792060484
  0
VERTEX
  8
LAYER_1
 62
   250
 10
-30.61132514854763
 20
17.36461929876693
  0
VERTEX
  8
LAYER_1
 62
   250
 10
-30.8706553495294
 20
17.22600441845382
  0
VERTEX
  8
LAYER_1
 62
   250
 10
-31.09796017177982
 20
17.03946017177982
  0
VERTEX
  8
LAYER_1
 62
   250
 10
-31.28450441845382
 20
16.8121553495294
  0
VERTEX
  8
LAYER_1
 62
   250
 10
-31.42311929876693
 20
16.55282514854763
  0
VERTEX
  8
LAYER_1
 62
   250
 10
-31.50847792060484
 20
16.27143548302419
  0
VERTEX
  8
LAYER_1
 62
   250
 10
-31.5373
 20
15.9788
  0
VERTEX
  8
LAYER_1
 62
   250
 10
-31.50847792060484
 20
15.68616451697581
  0
VERTEX
  8
LAYER_1
 62
   250
 10
-31.42311929876693
 20
15.40477485145236
  0
VERTEX
  8
LAYER_1
 62
   250
 10
-31.28450441845382
 20
15.1454446504706
  0
VERTEX
  8
LAYER_1
 62
   250
 10
-31.09796017177982
 20
14.91813982822018
  0
VERTEX
  8
LAYER_1
 62
   250
 10
-30.8706553495294
 20
14.73159558154618
  0
VERTEX
  8
LAYER_1
 62
   250
 10
-30.61132514854763
 20
14.59298070123307
  0
VERTEX
  8
LAYER_1
 62
   250
 10
-30.32993548302419
 20
14.50762207939515
  0
VERTEX
  8
LAYER_1
 62
   250
 10
-30.0373
 20
14.4788
  0
VERTEX
  8
LAYER_1
 62
   250
 10
-29.7446645169758
 20
14.50762207939515
  0
VERTEX
  8
LAYER_1
 62
   250
 10
-29.46327485145236
 20
14.59298070123307
  0
VERTEX
  8
LAYER_1
 62
   250
 10
-29.20394465047059
 20
14.73159558154618
  0
VERTEX
  8
LAYER_1
 62
   250
 10
-28.97663982822018
 20
14.91813982822018
  0
VERTEX
  8
LAYER_1
 62
   250
 10
-28.79009558154618
 20
15.1454446504706
  0
VERTEX
  8
LAYER_1
 62
   250
 10
-28.65148070123307
 20
15.40477485145237
  0
VERTEX
  8
LAYER_1
 62
   250
 10
-28.56612207939515
 20
15.68616451697581
  0
VERTEX
  8
LAYER_1
 62
   250
 10
-28.5373
 20
15.9788
  0
VERTEX
  8
LAYER_1
 62
   250
 10
-28.56612207939515
 20
16.2714354830242
  0
VERTEX
  8
LAYER_1
 62
   250
 10
-28.65148070123307
 20
16.55282514854764
  0
VERTEX
  8
LAYER_1
 62
   250
 10
-28.79009558154618
 20
16.81215534952941
  0
VERTEX
  8
LAYER_1
 62
   250
 10
-28.97663982822018
 20
17.03946017177983
  0
VERTEX
  8
LAYER_1
 62
   250
 10
-29.2039446504706
 20
17.22600441845382
  0
VERTEX
  8
LAYER_1
 62
   250
 10
-29.46327485145237
 20
17.36461929876693
  0
VERTEX
  8
LAYER_1
 62
   250
 10
-29.74466451697581
 20
17.44997792060485
  0
SEQEND
  8
LAYER_1
 62
   250
  0
POLYLINE
  8
LAYER_1
 62
   250
 66
     1
 70
     1
  0
VERTEX
  8
LAYER_1
 62
   250
 10
34.8822
 20
17.2846
  0
VERTEX
  8
LAYER_1
 62
   250
 10
34.58956451697581
 20
17.25577792060485
  0
VERTEX
  8
LAYER_1
 62
   250
 10
34.30817485145236
 20
17.17041929876693
  0
VERTEX
  8
LAYER_1
 62
   250
 10
34.04884465047059
 20
17.03180441845382
  0
VERTEX
  8
LAYER_1
 62
   250
 10
33.82153982822017
 20
16.84526017177982
  0
VERTEX
  8
LAYER_1
 62
   250
 10
33.63499558154618
 20
16.6179553495294
  0
VERTEX
  8
LAYER_1
 62
   250
 10
33.49638070123306
 20
16.35862514854763
  0
VERTEX
  8
LAYER_1
 62
   250
 10
33.41102207939515
 20
16.07723548302419
  0
VERTEX
  8
LAYER_1
 62
   250
 10
33.3822
 20
15.7846
  0
VERTEX
  8
LAYER_1
 62
   250
 10
33.41102207939515
 20
15.49196451697581
  0
VERTEX
  8
LAYER_1
 62
   250
 10
33.49638070123306
 20
15.21057485145236
  0
VERTEX
  8
LAYER_1
 62
   250
 10
33.63499558154618
 20
14.9512446504706
  0
VERTEX
  8
LAYER_1
 62
   250
 10
33.82153982822017
 20
14.72393982822018
  0
VERTEX
  8
LAYER_1
 62
   250
 10
34.04884465047059
 20
14.53739558154618
  0
VERTEX
  8
LAYER_1
 62
   250
 10
34.30817485145236
 20
14.39878070123307
  0
VERTEX
  8
LAYER_1
 62
   250
 10
34.58956451697581
 20
14.31342207939515
  0
VERTEX
  8
LAYER_1
 62
   250
 10
34.8822
 20
14.2846
  0
VERTEX
  8
LAYER_1
 62
   250
 10
35.17483548302419
 20
14.31342207939515
  0
VERTEX
  8
LAYER_1
 62
   250
 10
35.45622514854763
 20
14.39878070123307
  0
VERTEX
  8
LAYER_1
 62
   250
 10
35.7155553495294
 20
14.53739558154618
  0
VERTEX
  8
LAYER_1
 62
   250
 10
35.94286017177982
 20
14.72393982822018
  0
VERTEX
  8
LAYER_1
 62
   250
 10
36.12940441845382
 20
14.9512446504706
  0
VERTEX
  8
LAYER_1
 62
   250
 10
36.26801929876693
 20
15.21057485145237
  0
VERTEX
  8
LAYER_1
 62
   250
 10
36.35337792060484
 20
15.49196451697581
  0
VERTEX
  8
LAYER_1
 62
   250
 10
36.3822
 20
15.7846
  0
VERTEX
  8
LAYER_1
 62
   250
 10
36.35337792060484
 20
16.0772354830242
  0
VERTEX
  8
LAYER_1
 62
   250
 10
36.26801929876692
 20
16.35862514854764
  0
VERTEX
  8
LAYER_1
 62
   250
 10
36.12940441845381
 20
16.61795534952941
  0
VERTEX
  8
LAYER_1
 62
   250
 10
35.94286017177981
 20
16.84526017177982
  0
VERTEX
  8
LAYER_1
 62
   250
 10
35.7155553495294
 20
17.03180441845382
  0
VERTEX
  8
LAYER_1
 62
   250
 10
35.45622514854762
 20
17.17041929876693
  0
VERTEX
  8
LAYER_1
 62
   250
 10
35.17483548302418
 20
17.25577792060485
  0
SEQEND
  8
LAYER_1
 62
   250
  0
POLYLINE
  8
LAYER_1
 62
   250
 66
     1
 70
     1
  0
VERTEX
  8
LAYER_1
 62
   250
 10
-20.0478
 20
-25.5154
  0
VERTEX
  8
LAYER_1
 62
   250
 10
-20.34043548302419
 20
-25.54422207939515
  0
VERTEX
  8
LAYER_1
 62
   250
 10
-20.62182514854763
 20
-25.62958070123307
  0
VERTEX
  8
LAYER_1
 62
   250
 10
-20.8811553495294
 20
-25.76819558154618
  0
VERTEX
  8
LAYER_1
 62
   250
 10
-21.10846017177982
 20
-25.95473982822018
  0
VERTEX
  8
LAYER_1
 62
   250
 10
-21.29500441845382
 20
-26.1820446504706
  0
VERTEX
  8
LAYER_1
 62
   250
 10
-21.43361929876693
 20
-26.44137485145237
  0
VERTEX
  8
LAYER_1
 62
   250
 10
-21.51897792060484
 20
-26.72276451697581
  0
VERTEX
  8
LAYER_1
 62
   250
 10
-21.5478
 20
-27.0154
  0
VERTEX
  8
LAYER_1
 62
   250
 10
-21.51897792060484
 20
-27.30803548302419
  0
VERTEX
  8
LAYER_1
 62
   250
 10
-21.43361929876693
 20
-27.58942514854763
  0
VERTEX
  8
LAYER_1
 62
   250
 10
-21.29500441845382
 20
-27.8487553495294
  0
VERTEX
  8
LAYER_1
 62
   250
 10
-21.10846017177982
 20
-28.07606017177982
  0
VERTEX
  8
LAYER_1
 62
   250
 10
-20.8811553495294
 20
-28.26260441845382
  0
VERTEX
  8
LAYER_1
 62
   250
 10
-20.62182514854763
 20
-28.40121929876693
  0
VERTEX
  8
LAYER_1
 62
   250
 10
-20.34043548302419
 20
-28.48657792060484
  0
VERTEX
  8
LAYER_1
 62
   250
 10
-20.0478
 20
-28.5154
  0
VERTEX
  8
LAYER_1
 62
   250
 10
-19.7551645169758
 20
-28.48657792060484
  0
VERTEX
  8
LAYER_1
 62
   250
 10
-19.47377485145236
 20
-28.40121929876693
  0
VERTEX
  8
LAYER_1
 62
   250
 10
-19.21444465047059
 20
-28.26260441845382
  0
VERTEX
  8
LAYER_1
 62
   250
 10
-18.98713982822018
 20
-28.07606017177982
  0
VERTEX
  8
LAYER_1
 62
   250
 10
-18.80059558154618
 20
-27.8487553495294
  0
VERTEX
  8
LAYER_1
 62
   250
 10
-18.66198070123307
 20
-27.58942514854763
  0
VERTEX
  8
LAYER_1
 62
   250
 10
-18.57662207939515
 20
-27.30803548302419
  0
VERTEX
  8
LAYER_1
 62
   250
 10
-18.5478
 20
-27.0154
  0
VERTEX
  8
LAYER_1
 62
   250
 10
-18.57662207939515
 20
-26.7227645169758
  0
VERTEX
  8
LAYER_1
 62
   250
 10
-18.66198070123307
 20
-26.44137485145236
  0
VERTEX
  8
LAYER_1
 62
   250
 10
-18.80059558154618
 20
-26.18204465047059
  0
VERTEX
  8
LAYER_1
 62
   250
 10
-18.98713982822018
 20
-25.95473982822017
  0
VERTEX
  8
LAYER_1
 62
   250
 10
-19.2144446504706
 20
-25.76819558154618
  0
VERTEX
  8
LAYER_1
 62
   250
 10
-19.47377485145237
 20
-25.62958070123307
  0
VERTEX
  8
LAYER_1
 62
   250
 10
-19.75516451697581
 20
-25.54422207939515
  0
SEQEND
  8
LAYER_1
 62
   250
  0
POLYLINE
  8
LAYER_1
 62
   250
 66
     1
 70
     1
  0
VERTEX
  8
LAYER_1
 62
   250
 10
24.9522
 20
-25.5154
  0
VERTEX
  8
LAYER_1
 62
   250
 10
24.65956451697581
 20
-25.54422207939515
  0
VERTEX
  8
LAYER_1
 62
   250
 10
24.37817485145237
 20
-25.62958070123307
  0
VERTEX
  8
LAYER_1
 62
   250
 10
24.1188446504706
 20
-25.76819558154618
  0
VERTEX
  8
LAYER_1
 62
   250
 10
23.89153982822018
 20
-25.95473982822018
  0
VERTEX
  8
LAYER_1
 62
   250
 10
23.70499558154618
 20
-26.1820446504706
  0
VERTEX
  8
LAYER_1
 62
   250
 10
23.56638070123307
 20
-26.44137485145237
  0
VERTEX
  8
LAYER_1
 62
   250
 10
23.48102207939516
 20
-26.72276451697581
  0
VERTEX
  8
LAYER_1
 62
   250
 10
23.4522
 20
-27.0154
  0
VERTEX
  8
LAYER_1
 62
   250
 10
23.48102207939516
 20
-27.30803548302419
  0
VERTEX
  8
LAYER_1
 62
   250
 10
23.56638070123307
 20
-27.58942514854763
  0
VERTEX
  8
LAYER_1
 62
   250
 10
23.70499558154618
 20
-27.8487553495294
  0
VERTEX
  8
LAYER_1
 62
   250
 10
23.89153982822018
 20
-28.07606017177982
  0
VERTEX
  8
LAYER_1
 62
   250
 10
24.1188446504706
 20
-28.26260441845382
  0
VERTEX
  8
LAYER_1
 62
   250
 10
24.37817485145237
 20
-28.40121929876693
  0
VERTEX
  8
LAYER_1
 62
   250
 10
24.65956451697581
 20
-28.48657792060484
  0
VERTEX
  8
LAYER_1
 62
   250
 10
24.9522
 20
-28.5154
  0
VERTEX
  8
LAYER_1
 62
   250
 10
25.2448354830242
 20
-28.48657792060484
  0
VERTEX
  8
LAYER_1
 62
   250
 10
25.52622514854764
 20
-28.40121929876693
  0
VERTEX
  8
LAYER_1
 62
   250
 10
25.78555534952941
 20
-28.26260441845382
  0
VERTEX
  8
LAYER_1
 62
   250
 10
26.01286017177982
 20
-28.07606017177982
  0
VERTEX
  8
LAYER_1
 62
   250
 10
26.19940441845382
 20
-27.8487553495294
  0
VERTEX
  8
LAYER_1
 62
   250
 10
26.33801929876693
 20
-27.58942514854763
  0
VERTEX
  8
LAYER_1
 62
   250
 10
26.42337792060485
 20
-27.30803548302419
  0
VERTEX
  8
LAYER_1
 62
   250
 10
26.4522
 20
-27.0154
  0
VERTEX
  8
LAYER_1
 62
   250
 10
26.42337792060485
 20
-26.7227645169758
  0
VERTEX
  8
LAYER_1
 62
   250
 10
26.33801929876693
 20
-26.44137485145236
  0
VERTEX
  8
LAYER_1
 62
   250
 10
26.19940441845382
 20
-26.18204465047059
  0
VERTEX
  8
LAYER_1
 62
   250
 10
26.01286017177982
 20
-25.95473982822017
  0
VERTEX
  8
LAYER_1
 62
   250
 10
25.7855553495294
 20
-25.76819558154618
  0
VERTEX
  8
LAYER_1
 62
   250
 10
25.52622514854763
 20
-25.62958070123307
  0
VERTEX
  8
LAYER_1
 62
   250
 10
25.24483548302419
 20
-25.54422207939515
  0
SEQEND
  8
LAYER_1
 62
   250
  0
POLYLINE
  8
20
 62
   250
 66
     1
  0
VERTEX
  8
20
 62
   250
 10
11.538
 20
32.2644
  0
VERTEX
  8
20
 62
   250
 10
11.3552
 20
30.3204
  0
VERTEX
  8
20
 62
   250
 10
10.8307
 20
28.5097
  0
VERTEX
  8
20
 62
   250
 10
10.001
 20
26.8712
  0
VERTEX
  8
20
 62
   250
 10
8.902
 20
25.4436
  0
VERTEX
  8
20
 62
   250
 10
7.57
 20
24.2657
  0
VERTEX
  8
20
 62
   250
 10
6.0412
 20
23.3763
  0
VERTEX
  8
20
 62
   250
 10
4.3518
 20
22.8142
  0
VERTEX
  8
20
 62
   250
 10
2.538
 20
22.6182
  0
VERTEX
  8
20
 62
   250
 10
0.7242
 20
22.8142
  0
VERTEX
  8
20
 62
   250
 10
-0.9652
 20
23.3763
  0
VERTEX
  8
20
 62
   250
 10
-2.494
 20
24.2657
  0
VERTEX
  8
20
 62
   250
 10
-3.826
 20
25.4436
  0
VERTEX
  8
20
 62
   250
 10
-4.925
 20
26.8712
  0
VERTEX
  8
20
 62
   250
 10
-5.7547
 20
28.5097
  0
VERTEX
  8
20
 62
   250
 10
-6.2792
 20
30.3204
  0
VERTEX
  8
20
 62
   250
 10
-6.462
 20
32.2644
  0
SEQEND
  8
20
 62
   250
  0
POLYLINE
  8
20
 62
   250
 66
     1
  0
VERTEX
  8
20
 62
   250
 10
1.0378
 20
34.2172
  0
VERTEX
  8
20
 62
   250
 10
1.0378
 20
43.3316
  0
SEQEND
  8
20
 62
   250
  0
POLYLINE
  8
20
 62
   250
 66
     1
  0
VERTEX
  8
20
 62
   250
 10
4.0376
 20
34.2034
  0
VERTEX
  8
20
 62
   250
 10
4.0376
 20
43.3701
  0
SEQEND
  8
20
 62
   250
  0
POLYLINE
  8
20
 62
   250
 66
     1
  0
VERTEX
  8
20
 62
   250
 10
-6.4576
 20
31.9608
  0
VERTEX
  8
20
 62
   250
 10
-6.4575
 20
31.957
  0
SEQEND
  8
20
 62
   250
  0
POLYLINE
  8
20
 62
   250
 66
     1
  0
VERTEX
  8
20
 62
   250
 10
-6.462
 20
32.2644
  0
VERTEX
  8
20
 62
   250
 10
1.0996
 20
34.3026
  0
SEQEND
  8
20
 62
   250
  0
POLYLINE
  8
20
 62
   250
 66
     1
  0
VERTEX
  8
20
 62
   250
 10
3.9855
 20
34.3002
  0
VERTEX
  8
20
 62
   250
 10
11.538
 20
32.2644
  0
SEQEND
  8
20
 62
   250
  0
POLYLINE
  8
20
 62
   250
 66
     1
  0
VERTEX
  8
20
 62
   250
 10
1.038
 20
43.301
  0
VERTEX
  8
20
 62
   250
 10
1.0685
 20
43.446
  0
VERTEX
  8
20
 62
   250
 10
1.1559
 20
43.5811
  0
VERTEX
  8
20
 62
   250
 10
1.2942
 20
43.7033
  0
VERTEX
  8
20
 62
   250
 10
1.4774
 20
43.8098
  0
VERTEX
  8
20
 62
   250
 10
1.6993
 20
43.8977
  0
VERTEX
  8
20
 62
   250
 10
1.9541
 20
43.964
  0
VERTEX
  8
20
 62
   250
 10
2.2357
 20
44.006
  0
VERTEX
  8
20
 62
   250
 10
2.538
 20
44.0206
  0
VERTEX
  8
20
 62
   250
 10
2.8403
 20
44.006
  0
VERTEX
  8
20
 62
   250
 10
3.1219
 20
43.964
  0
VERTEX
  8
20
 62
   250
 10
3.3767
 20
43.8977
  0
VERTEX
  8
20
 62
   250
 10
3.5987
 20
43.8098
  0
VERTEX
  8
20
 62
   250
 10
3.7818
 20
43.7033
  0
VERTEX
  8
20
 62
   250
 10
3.9201
 20
43.5811
  0
VERTEX
  8
20
 62
   250
 10
4.0075
 20
43.446
  0
VERTEX
  8
20
 62
   250
 10
4.038
 20
43.301
  0
SEQEND
  8
20
 62
   250
  0
ENDSEC
  0
EOF
