  0
SECTION
  2
HEADER
  9
$ACADVER
  1
AC1002
  9
$INSBASE
 10
0.0
 20
0.0
  9
$EXTMIN
 10
-48.9215
 20
-56.0185
  9
$EXTMAX
 10
53.6656
 20
55.3008
  9
$LIMMIN
 10
0.0
 20
0.0
  9
$LIMMAX
 10
12.0
 20
9.0
  9
$ORTHOMODE
 70
     0
  9
$REGENMODE
 70
     1
  9
$FILLMODE
 70
     1
  9
$QTEXTMODE
 70
     0
  9
$DRAGMODE
 70
     2
  9
$LTSCALE
 40
1.0
  9
$OSMODE
 70
    37
  9
$ATTMODE
 70
     1
  9
$TEXTSIZE
 40
0.2
  9
$TRACEWID
 40
0.05
  9
$TEXTSTYLE
  7
STANDARD
  9
$CLAYER
  8
0
  9
$CELTYPE
  6
BYLAYER
  9
$CECOLOR
 62
   256
  9
$DIMSCALE
 40
1.0
  9
$DIMASZ
 40
0.18
  9
$DIMEXO
 40
0.0625
  9
$DIMDLI
 40
0.38
  9
$DIMRND
 40
0.0
  9
$DIMDLE
 40
0.0
  9
$DIMEXE
 40
0.18
  9
$DIMTP
 40
0.0
  9
$DIMTM
 40
0.0
  9
$DIMTXT
 40
0.18
  9
$DIMCEN
 40
0.09
  9
$DIMTSZ
 40
0.0
  9
$DIMTOL
 70
     0
  9
$DIMLIM
 70
     0
  9
$DIMTIH
 70
     1
  9
$DIMTOH
 70
     1
  9
$DIMSE1
 70
     0
  9
$DIMSE2
 70
     0
  9
$DIMTAD
 70
     0
  9
$DIMZIN
 70
     0
  9
$DIMBLK
  1

  9
$LUNITS
 70
     2
  9
$LUPREC
 70
     4
  9
$SKETCHINC
 40
0.1
  9
$FILLETRAD
 40
0.5
  9
$AUNITS
 70
     0
  9
$AUPREC
 70
     0
  9
$MENU
  1
.
  9
$ELEVATION
 40
0.0
  9
$THICKNESS
 40
0.0
  9
$LIMCHECK
 70
     0
  9
$CHAMFERA
 40
0.0
  9
$CHAMFERB
 40
0.0
  9
$SKPOLY
 70
     0
  9
$TDCREATE
 40
2459236.310888322
  9
$TDUPDATE
 40
2459236.310888345
  9
$TDINDWG
 40
0.0000000116
  9
$TDUSRTIMER
 40
0.0000000116
  9
$USRTIMER
 70
     1
  9
$ANGBASE
 50
0.0
  9
$ANGDIR
 70
     0
  9
$PDMODE
 70
     0
  9
$PDSIZE
 40
0.0
  9
$PLINEWID
 40
0.0
  9
$COORDS
 70
     1
  9
$SURFTAB1
 70
     6
  9
$SURFTAB2
 70
     6
  9
$SURFTYPE
 70
     6
  9
$SURFU
 70
     6
  9
$SURFV
 70
     6
  9
$UCSNAME
  2

  9
$UCSORG
 10
0.0
 20
0.0
 30
0.0
  9
$UCSXDIR
 10
1.0
 20
0.0
 30
0.0
  9
$UCSYDIR
 10
0.0
 20
1.0
 30
0.0
  9
$USERI1
 70
     0
  9
$USERI2
 70
     0
  9
$USERI3
 70
     0
  9
$USERI4
 70
     0
  9
$USERI5
 70
     0
  9
$USERR1
 40
0.0
  9
$USERR2
 40
0.0
  9
$USERR3
 40
0.0
  9
$USERR4
 40
0.0
  9
$USERR5
 40
0.0
  0
ENDSEC
  0
SECTION
  2
TABLES
  0
TABLE
  2
LTYPE
 70
     1
  0
LTYPE
  2
CONTINUOUS
 70
     0
  3
Solid line
 72
    65
 73
     0
 40
0.0
  0
ENDTAB
  0
TABLE
  2
LAYER
 70
     2
  0
LAYER
  2
0
 70
     0
 62
     7
  6
CONTINUOUS
  0
LAYER
  2
LAYER_1
 70
     0
 62
     7
  6
CONTINUOUS
  0
ENDTAB
  0
TABLE
  2
STYLE
 70
     1
  0
STYLE
  2
STANDARD
 70
     0
 40
0.0
 41
1.0
 50
0.0
 71
     0
 42
0.2
  3
txt
  4

  0
ENDTAB
  0
TABLE
  2
VIEW
 70
     0
  0
ENDTAB
  0
ENDSEC
  0
SECTION
  2
BLOCKS
  0
ENDSEC
  0
SECTION
  2
ENTITIES
  0
POLYLINE
  8
LAYER_1
 62
   250
 66
     1
  0
VERTEX
  8
LAYER_1
 62
   250
 10
53.6656
 20
-55.9804
  0
VERTEX
  8
LAYER_1
 62
   250
 10
35.3684
 20
-55.9804
  0
SEQEND
  8
LAYER_1
 62
   250
  0
POLYLINE
  8
LAYER_1
 62
   250
 66
     1
  0
VERTEX
  8
LAYER_1
 62
   250
 10
-29.2795
 20
-32.1565
  0
VERTEX
  8
LAYER_1
 62
   250
 10
-33.2574
 20
-28.427
  0
VERTEX
  8
LAYER_1
 62
   250
 10
-36.771
 20
-24.3214
  0
VERTEX
  8
LAYER_1
 62
   250
 10
-39.8
 20
-19.8835
  0
VERTEX
  8
LAYER_1
 62
   250
 10
-42.3239
 20
-15.1569
  0
VERTEX
  8
LAYER_1
 62
   250
 10
-44.3223
 20
-10.1853
  0
VERTEX
  8
LAYER_1
 62
   250
 10
-45.775
 20
-5.0124
  0
VERTEX
  8
LAYER_1
 62
   250
 10
-46.6616
 20
0.3182
  0
VERTEX
  8
LAYER_1
 62
   250
 10
-46.9616
 20
5.7627
  0
VERTEX
  8
LAYER_1
 62
   250
 10
-45.9559
 20
15.7387
  0
VERTEX
  8
LAYER_1
 62
   250
 10
-43.0716
 20
25.0303
  0
VERTEX
  8
LAYER_1
 62
   250
 10
-38.5078
 20
33.4386
  0
VERTEX
  8
LAYER_1
 62
   250
 10
-32.4634
 20
40.7645
  0
VERTEX
  8
LAYER_1
 62
   250
 10
-25.1375
 20
46.8089
  0
VERTEX
  8
LAYER_1
 62
   250
 10
-16.7292
 20
51.3727
  0
VERTEX
  8
LAYER_1
 62
   250
 10
-7.4376
 20
54.257
  0
VERTEX
  8
LAYER_1
 62
   250
 10
2.5384
 20
55.2627
  0
VERTEX
  8
LAYER_1
 62
   250
 10
12.5144
 20
54.257
  0
VERTEX
  8
LAYER_1
 62
   250
 10
21.806
 20
51.3727
  0
VERTEX
  8
LAYER_1
 62
   250
 10
30.2143
 20
46.8089
  0
VERTEX
  8
LAYER_1
 62
   250
 10
37.5402
 20
40.7645
  0
VERTEX
  8
LAYER_1
 62
   250
 10
43.5846
 20
33.4386
  0
VERTEX
  8
LAYER_1
 62
   250
 10
48.1484
 20
25.0303
  0
VERTEX
  8
LAYER_1
 62
   250
 10
51.0327
 20
15.7387
  0
VERTEX
  8
LAYER_1
 62
   250
 10
52.0384
 20
5.7627
  0
VERTEX
  8
LAYER_1
 62
   250
 10
51.7384
 20
0.3182
  0
VERTEX
  8
LAYER_1
 62
   250
 10
50.8518
 20
-5.0124
  0
VERTEX
  8
LAYER_1
 62
   250
 10
49.3991
 20
-10.1853
  0
VERTEX
  8
LAYER_1
 62
   250
 10
47.4007
 20
-15.1569
  0
VERTEX
  8
LAYER_1
 62
   250
 10
44.8768
 20
-19.8835
  0
VERTEX
  8
LAYER_1
 62
   250
 10
41.8478
 20
-24.3214
  0
VERTEX
  8
LAYER_1
 62
   250
 10
38.3342
 20
-28.427
  0
VERTEX
  8
LAYER_1
 62
   250
 10
34.3563
 20
-32.1565
  0
SEQEND
  8
LAYER_1
 62
   250
  0
POLYLINE
  8
LAYER_1
 62
   250
 66
     1
  0
VERTEX
  8
LAYER_1
 62
   250
 10
27.3368
 20
-37.0459
  0
VERTEX
  8
LAYER_1
 62
   250
 10
24.4692
 20
-38.5782
  0
VERTEX
  8
LAYER_1
 62
   250
 10
21.5169
 20
-39.915
  0
VERTEX
  8
LAYER_1
 62
   250
 10
18.4899
 20
-41.0535
  0
VERTEX
  8
LAYER_1
 62
   250
 10
15.3983
 20
-41.991
  0
VERTEX
  8
LAYER_1
 62
   250
 10
12.2521
 20
-42.7249
  0
VERTEX
  8
LAYER_1
 62
   250
 10
9.0614
 20
-43.2524
  0
VERTEX
  8
LAYER_1
 62
   250
 10
5.8362
 20
-43.5709
  0
VERTEX
  8
LAYER_1
 62
   250
 10
2.5867
 20
-43.6777
  0
VERTEX
  8
LAYER_1
 62
   250
 10
-0.6628
 20
-43.5709
  0
VERTEX
  8
LAYER_1
 62
   250
 10
-3.888
 20
-43.2524
  0
VERTEX
  8
LAYER_1
 62
   250
 10
-7.0787
 20
-42.7249
  0
VERTEX
  8
LAYER_1
 62
   250
 10
-10.2248
 20
-41.991
  0
VERTEX
  8
LAYER_1
 62
   250
 10
-13.3164
 20
-41.0535
  0
VERTEX
  8
LAYER_1
 62
   250
 10
-16.3434
 20
-39.915
  0
VERTEX
  8
LAYER_1
 62
   250
 10
-19.2957
 20
-38.5782
  0
VERTEX
  8
LAYER_1
 62
   250
 10
-22.1632
 20
-37.0459
  0
SEQEND
  8
LAYER_1
 62
   250
  0
POLYLINE
  8
LAYER_1
 62
   250
 66
     1
  0
VERTEX
  8
LAYER_1
 62
   250
 10
-29.2795
 20
-32.1565
  0
VERTEX
  8
LAYER_1
 62
   250
 10
-48.8921
 20
-55.9804
  0
SEQEND
  8
LAYER_1
 62
   250
  0
POLYLINE
  8
LAYER_1
 62
   250
 66
     1
  0
VERTEX
  8
LAYER_1
 62
   250
 10
-22.1632
 20
-37.0459
  0
VERTEX
  8
LAYER_1
 62
   250
 10
-30.752
 20
-55.9804
  0
SEQEND
  8
LAYER_1
 62
   250
  0
POLYLINE
  8
LAYER_1
 62
   250
 66
     1
  0
VERTEX
  8
LAYER_1
 62
   250
 10
34.3563
 20
-32.1565
  0
VERTEX
  8
LAYER_1
 62
   250
 10
53.6161
 20
-55.9804
  0
SEQEND
  8
LAYER_1
 62
   250
  0
POLYLINE
  8
LAYER_1
 62
   250
 66
     1
  0
VERTEX
  8
LAYER_1
 62
   250
 10
27.3368
 20
-37.0459
  0
VERTEX
  8
LAYER_1
 62
   250
 10
35.4762
 20
-55.9803
  0
SEQEND
  8
LAYER_1
 62
   250
  0
POLYLINE
  8
LAYER_1
 62
   250
 66
     1
  0
VERTEX
  8
LAYER_1
 62
   250
 10
-30.752
 20
-55.9804
  0
VERTEX
  8
LAYER_1
 62
   250
 10
-48.8921
 20
-55.9804
  0
SEQEND
  8
LAYER_1
 62
   250
  0
POLYLINE
  8
LAYER_1
 62
   250
 66
     1
 70
     1
  0
VERTEX
  8
LAYER_1
 62
   250
 10
-34.6462
 20
-48.4246
  0
VERTEX
  8
LAYER_1
 62
   250
 10
-34.93883548302419
 20
-48.45342207939515
  0
VERTEX
  8
LAYER_1
 62
   250
 10
-35.22022514854763
 20
-48.53878070123307
  0
VERTEX
  8
LAYER_1
 62
   250
 10
-35.47955534952941
 20
-48.67739558154618
  0
VERTEX
  8
LAYER_1
 62
   250
 10
-35.70686017177982
 20
-48.86393982822018
  0
VERTEX
  8
LAYER_1
 62
   250
 10
-35.89340441845382
 20
-49.09124465047059
  0
VERTEX
  8
LAYER_1
 62
   250
 10
-36.03201929876693
 20
-49.35057485145236
  0
VERTEX
  8
LAYER_1
 62
   250
 10
-36.11737792060485
 20
-49.63196451697581
  0
VERTEX
  8
LAYER_1
 62
   250
 10
-36.1462
 20
-49.9246
  0
VERTEX
  8
LAYER_1
 62
   250
 10
-36.11737792060485
 20
-50.21723548302419
  0
VERTEX
  8
LAYER_1
 62
   250
 10
-36.03201929876693
 20
-50.49862514854763
  0
VERTEX
  8
LAYER_1
 62
   250
 10
-35.89340441845382
 20
-50.7579553495294
  0
VERTEX
  8
LAYER_1
 62
   250
 10
-35.70686017177982
 20
-50.98526017177982
  0
VERTEX
  8
LAYER_1
 62
   250
 10
-35.47955534952941
 20
-51.17180441845382
  0
VERTEX
  8
LAYER_1
 62
   250
 10
-35.22022514854763
 20
-51.31041929876693
  0
VERTEX
  8
LAYER_1
 62
   250
 10
-34.93883548302419
 20
-51.39577792060484
  0
VERTEX
  8
LAYER_1
 62
   250
 10
-34.6462
 20
-51.4246
  0
VERTEX
  8
LAYER_1
 62
   250
 10
-34.35356451697581
 20
-51.39577792060484
  0
VERTEX
  8
LAYER_1
 62
   250
 10
-34.07217485145237
 20
-51.31041929876693
  0
VERTEX
  8
LAYER_1
 62
   250
 10
-33.81284465047059
 20
-51.17180441845382
  0
VERTEX
  8
LAYER_1
 62
   250
 10
-33.58553982822018
 20
-50.98526017177982
  0
VERTEX
  8
LAYER_1
 62
   250
 10
-33.39899558154618
 20
-50.7579553495294
  0
VERTEX
  8
LAYER_1
 62
   250
 10
-33.26038070123307
 20
-50.49862514854763
  0
VERTEX
  8
LAYER_1
 62
   250
 10
-33.17502207939516
 20
-50.21723548302419
  0
VERTEX
  8
LAYER_1
 62
   250
 10
-33.1462
 20
-49.92459999999999
  0
VERTEX
  8
LAYER_1
 62
   250
 10
-33.17502207939516
 20
-49.6319645169758
  0
VERTEX
  8
LAYER_1
 62
   250
 10
-33.26038070123307
 20
-49.35057485145236
  0
VERTEX
  8
LAYER_1
 62
   250
 10
-33.39899558154619
 20
-49.09124465047059
  0
VERTEX
  8
LAYER_1
 62
   250
 10
-33.58553982822018
 20
-48.86393982822018
  0
VERTEX
  8
LAYER_1
 62
   250
 10
-33.8128446504706
 20
-48.67739558154618
  0
VERTEX
  8
LAYER_1
 62
   250
 10
-34.07217485145237
 20
-48.53878070123307
  0
VERTEX
  8
LAYER_1
 62
   250
 10
-34.35356451697582
 20
-48.45342207939515
  0
SEQEND
  8
LAYER_1
 62
   250
  0
POLYLINE
  8
LAYER_1
 62
   250
 66
     1
 70
     1
  0
VERTEX
  8
LAYER_1
 62
   250
 10
39.7897
 20
-48.4246
  0
VERTEX
  8
LAYER_1
 62
   250
 10
39.49706451697581
 20
-48.45342207939515
  0
VERTEX
  8
LAYER_1
 62
   250
 10
39.21567485145237
 20
-48.53878070123307
  0
VERTEX
  8
LAYER_1
 62
   250
 10
38.9563446504706
 20
-48.67739558154618
  0
VERTEX
  8
LAYER_1
 62
   250
 10
38.72903982822018
 20
-48.86393982822018
  0
VERTEX
  8
LAYER_1
 62
   250
 10
38.54249558154618
 20
-49.09124465047059
  0
VERTEX
  8
LAYER_1
 62
   250
 10
38.40388070123307
 20
-49.35057485145236
  0
VERTEX
  8
LAYER_1
 62
   250
 10
38.31852207939516
 20
-49.63196451697581
  0
VERTEX
  8
LAYER_1
 62
   250
 10
38.2897
 20
-49.9246
  0
VERTEX
  8
LAYER_1
 62
   250
 10
38.31852207939516
 20
-50.21723548302419
  0
VERTEX
  8
LAYER_1
 62
   250
 10
38.40388070123307
 20
-50.49862514854763
  0
VERTEX
  8
LAYER_1
 62
   250
 10
38.54249558154618
 20
-50.7579553495294
  0
VERTEX
  8
LAYER_1
 62
   250
 10
38.72903982822018
 20
-50.98526017177982
  0
VERTEX
  8
LAYER_1
 62
   250
 10
38.9563446504706
 20
-51.17180441845382
  0
VERTEX
  8
LAYER_1
 62
   250
 10
39.21567485145237
 20
-51.31041929876693
  0
VERTEX
  8
LAYER_1
 62
   250
 10
39.49706451697581
 20
-51.39577792060484
  0
VERTEX
  8
LAYER_1
 62
   250
 10
39.7897
 20
-51.4246
  0
VERTEX
  8
LAYER_1
 62
   250
 10
40.0823354830242
 20
-51.39577792060484
  0
VERTEX
  8
LAYER_1
 62
   250
 10
40.36372514854764
 20
-51.31041929876693
  0
VERTEX
  8
LAYER_1
 62
   250
 10
40.62305534952941
 20
-51.17180441845382
  0
VERTEX
  8
LAYER_1
 62
   250
 10
40.85036017177983
 20
-50.98526017177982
  0
VERTEX
  8
LAYER_1
 62
   250
 10
41.03690441845382
 20
-50.7579553495294
  0
VERTEX
  8
LAYER_1
 62
   250
 10
41.17551929876694
 20
-50.49862514854763
  0
VERTEX
  8
LAYER_1
 62
   250
 10
41.26087792060485
 20
-50.21723548302419
  0
VERTEX
  8
LAYER_1
 62
   250
 10
41.2897
 20
-49.92459999999999
  0
VERTEX
  8
LAYER_1
 62
   250
 10
41.26087792060485
 20
-49.6319645169758
  0
VERTEX
  8
LAYER_1
 62
   250
 10
41.17551929876693
 20
-49.35057485145236
  0
VERTEX
  8
LAYER_1
 62
   250
 10
41.03690441845382
 20
-49.09124465047059
  0
VERTEX
  8
LAYER_1
 62
   250
 10
40.85036017177982
 20
-48.86393982822018
  0
VERTEX
  8
LAYER_1
 62
   250
 10
40.6230553495294
 20
-48.67739558154618
  0
VERTEX
  8
LAYER_1
 62
   250
 10
40.36372514854763
 20
-48.53878070123307
  0
VERTEX
  8
LAYER_1
 62
   250
 10
40.08233548302419
 20
-48.45342207939515
  0
SEQEND
  8
LAYER_1
 62
   250
  0
POLYLINE
  8
LAYER_1
 62
   250
 66
     1
 70
     1
  0
VERTEX
  8
LAYER_1
 62
   250
 10
-30.0373
 20
17.4788
  0
VERTEX
  8
LAYER_1
 62
   250
 10
-30.32993548302419
 20
17.44997792060484
  0
VERTEX
  8
LAYER_1
 62
   250
 10
-30.61132514854763
 20
17.36461929876693
  0
VERTEX
  8
LAYER_1
 62
   250
 10
-30.8706553495294
 20
17.22600441845382
  0
VERTEX
  8
LAYER_1
 62
   250
 10
-31.09796017177982
 20
17.03946017177982
  0
VERTEX
  8
LAYER_1
 62
   250
 10
-31.28450441845382
 20
16.8121553495294
  0
VERTEX
  8
LAYER_1
 62
   250
 10
-31.42311929876693
 20
16.55282514854763
  0
VERTEX
  8
LAYER_1
 62
   250
 10
-31.50847792060484
 20
16.27143548302419
  0
VERTEX
  8
LAYER_1
 62
   250
 10
-31.5373
 20
15.9788
  0
VERTEX
  8
LAYER_1
 62
   250
 10
-31.50847792060484
 20
15.68616451697581
  0
VERTEX
  8
LAYER_1
 62
   250
 10
-31.42311929876693
 20
15.40477485145236
  0
VERTEX
  8
LAYER_1
 62
   250
 10
-31.28450441845382
 20
15.1454446504706
  0
VERTEX
  8
LAYER_1
 62
   250
 10
-31.09796017177982
 20
14.91813982822018
  0
VERTEX
  8
LAYER_1
 62
   250
 10
-30.8706553495294
 20
14.73159558154618
  0
VERTEX
  8
LAYER_1
 62
   250
 10
-30.61132514854763
 20
14.59298070123307
  0
VERTEX
  8
LAYER_1
 62
   250
 10
-30.32993548302419
 20
14.50762207939515
  0
VERTEX
  8
LAYER_1
 62
   250
 10
-30.0373
 20
14.4788
  0
VERTEX
  8
LAYER_1
 62
   250
 10
-29.7446645169758
 20
14.50762207939515
  0
VERTEX
  8
LAYER_1
 62
   250
 10
-29.46327485145236
 20
14.59298070123307
  0
VERTEX
  8
LAYER_1
 62
   250
 10
-29.20394465047059
 20
14.73159558154618
  0
VERTEX
  8
LAYER_1
 62
   250
 10
-28.97663982822018
 20
14.91813982822018
  0
VERTEX
  8
LAYER_1
 62
   250
 10
-28.79009558154618
 20
15.1454446504706
  0
VERTEX
  8
LAYER_1
 62
   250
 10
-28.65148070123307
 20
15.40477485145237
  0
VERTEX
  8
LAYER_1
 62
   250
 10
-28.56612207939515
 20
15.68616451697581
  0
VERTEX
  8
LAYER_1
 62
   250
 10
-28.5373
 20
15.9788
  0
VERTEX
  8
LAYER_1
 62
   250
 10
-28.56612207939515
 20
16.2714354830242
  0
VERTEX
  8
LAYER_1
 62
   250
 10
-28.65148070123307
 20
16.55282514854764
  0
VERTEX
  8
LAYER_1
 62
   250
 10
-28.79009558154618
 20
16.81215534952941
  0
VERTEX
  8
LAYER_1
 62
   250
 10
-28.97663982822018
 20
17.03946017177983
  0
VERTEX
  8
LAYER_1
 62
   250
 10
-29.2039446504706
 20
17.22600441845382
  0
VERTEX
  8
LAYER_1
 62
   250
 10
-29.46327485145237
 20
17.36461929876693
  0
VERTEX
  8
LAYER_1
 62
   250
 10
-29.74466451697581
 20
17.44997792060485
  0
SEQEND
  8
LAYER_1
 62
   250
  0
POLYLINE
  8
LAYER_1
 62
   250
 66
     1
 70
     1
  0
VERTEX
  8
LAYER_1
 62
   250
 10
34.8822
 20
17.2846
  0
VERTEX
  8
LAYER_1
 62
   250
 10
34.58956451697581
 20
17.25577792060485
  0
VERTEX
  8
LAYER_1
 62
   250
 10
34.30817485145236
 20
17.17041929876693
  0
VERTEX
  8
LAYER_1
 62
   250
 10
34.04884465047059
 20
17.03180441845382
  0
VERTEX
  8
LAYER_1
 62
   250
 10
33.82153982822017
 20
16.84526017177982
  0
VERTEX
  8
LAYER_1
 62
   250
 10
33.63499558154618
 20
16.6179553495294
  0
VERTEX
  8
LAYER_1
 62
   250
 10
33.49638070123306
 20
16.35862514854763
  0
VERTEX
  8
LAYER_1
 62
   250
 10
33.41102207939515
 20
16.07723548302419
  0
VERTEX
  8
LAYER_1
 62
   250
 10
33.3822
 20
15.7846
  0
VERTEX
  8
LAYER_1
 62
   250
 10
33.41102207939515
 20
15.49196451697581
  0
VERTEX
  8
LAYER_1
 62
   250
 10
33.49638070123306
 20
15.21057485145236
  0
VERTEX
  8
LAYER_1
 62
   250
 10
33.63499558154618
 20
14.9512446504706
  0
VERTEX
  8
LAYER_1
 62
   250
 10
33.82153982822017
 20
14.72393982822018
  0
VERTEX
  8
LAYER_1
 62
   250
 10
34.04884465047059
 20
14.53739558154618
  0
VERTEX
  8
LAYER_1
 62
   250
 10
34.30817485145236
 20
14.39878070123307
  0
VERTEX
  8
LAYER_1
 62
   250
 10
34.58956451697581
 20
14.31342207939515
  0
VERTEX
  8
LAYER_1
 62
   250
 10
34.8822
 20
14.2846
  0
VERTEX
  8
LAYER_1
 62
   250
 10
35.17483548302419
 20
14.31342207939515
  0
VERTEX
  8
LAYER_1
 62
   250
 10
35.45622514854763
 20
14.39878070123307
  0
VERTEX
  8
LAYER_1
 62
   250
 10
35.7155553495294
 20
14.53739558154618
  0
VERTEX
  8
LAYER_1
 62
   250
 10
35.94286017177982
 20
14.72393982822018
  0
VERTEX
  8
LAYER_1
 62
   250
 10
36.12940441845382
 20
14.9512446504706
  0
VERTEX
  8
LAYER_1
 62
   250
 10
36.26801929876693
 20
15.21057485145237
  0
VERTEX
  8
LAYER_1
 62
   250
 10
36.35337792060484
 20
15.49196451697581
  0
VERTEX
  8
LAYER_1
 62
   250
 10
36.3822
 20
15.7846
  0
VERTEX
  8
LAYER_1
 62
   250
 10
36.35337792060484
 20
16.0772354830242
  0
VERTEX
  8
LAYER_1
 62
   250
 10
36.26801929876692
 20
16.35862514854764
  0
VERTEX
  8
LAYER_1
 62
   250
 10
36.12940441845381
 20
16.61795534952941
  0
VERTEX
  8
LAYER_1
 62
   250
 10
35.94286017177981
 20
16.84526017177982
  0
VERTEX
  8
LAYER_1
 62
   250
 10
35.7155553495294
 20
17.03180441845382
  0
VERTEX
  8
LAYER_1
 62
   250
 10
35.45622514854762
 20
17.17041929876693
  0
VERTEX
  8
LAYER_1
 62
   250
 10
35.17483548302418
 20
17.25577792060485
  0
SEQEND
  8
LAYER_1
 62
   250
  0
POLYLINE
  8
LAYER_1
 62
   250
 66
     1
 70
     1
  0
VERTEX
  8
LAYER_1
 62
   250
 10
-12.0994
 20
-29.7619
  0
VERTEX
  8
LAYER_1
 62
   250
 10
-12.39203548302419
 20
-29.79072207939516
  0
VERTEX
  8
LAYER_1
 62
   250
 10
-12.67342514854763
 20
-29.87608070123307
  0
VERTEX
  8
LAYER_1
 62
   250
 10
-12.9327553495294
 20
-30.01469558154618
  0
VERTEX
  8
LAYER_1
 62
   250
 10
-13.16006017177982
 20
-30.20123982822018
  0
VERTEX
  8
LAYER_1
 62
   250
 10
-13.34660441845382
 20
-30.4285446504706
  0
VERTEX
  8
LAYER_1
 62
   250
 10
-13.48521929876693
 20
-30.68787485145237
  0
VERTEX
  8
LAYER_1
 62
   250
 10
-13.57057792060484
 20
-30.96926451697581
  0
VERTEX
  8
LAYER_1
 62
   250
 10
-13.5994
 20
-31.2619
  0
VERTEX
  8
LAYER_1
 62
   250
 10
-13.57057792060484
 20
-31.55453548302419
  0
VERTEX
  8
LAYER_1
 62
   250
 10
-13.48521929876693
 20
-31.83592514854763
  0
VERTEX
  8
LAYER_1
 62
   250
 10
-13.34660441845382
 20
-32.0952553495294
  0
VERTEX
  8
LAYER_1
 62
   250
 10
-13.16006017177982
 20
-32.32256017177982
  0
VERTEX
  8
LAYER_1
 62
   250
 10
-12.9327553495294
 20
-32.50910441845382
  0
VERTEX
  8
LAYER_1
 62
   250
 10
-12.67342514854763
 20
-32.64771929876693
  0
VERTEX
  8
LAYER_1
 62
   250
 10
-12.39203548302419
 20
-32.73307792060485
  0
VERTEX
  8
LAYER_1
 62
   250
 10
-12.0994
 20
-32.7619
  0
VERTEX
  8
LAYER_1
 62
   250
 10
-11.80676451697581
 20
-32.73307792060485
  0
VERTEX
  8
LAYER_1
 62
   250
 10
-11.52537485145236
 20
-32.64771929876693
  0
VERTEX
  8
LAYER_1
 62
   250
 10
-11.26604465047059
 20
-32.50910441845382
  0
VERTEX
  8
LAYER_1
 62
   250
 10
-11.03873982822018
 20
-32.32256017177982
  0
VERTEX
  8
LAYER_1
 62
   250
 10
-10.85219558154618
 20
-32.0952553495294
  0
VERTEX
  8
LAYER_1
 62
   250
 10
-10.71358070123307
 20
-31.83592514854763
  0
VERTEX
  8
LAYER_1
 62
   250
 10
-10.62822207939515
 20
-31.55453548302419
  0
VERTEX
  8
LAYER_1
 62
   250
 10
-10.5994
 20
-31.2619
  0
VERTEX
  8
LAYER_1
 62
   250
 10
-10.62822207939515
 20
-30.96926451697581
  0
VERTEX
  8
LAYER_1
 62
   250
 10
-10.71358070123307
 20
-30.68787485145236
  0
VERTEX
  8
LAYER_1
 62
   250
 10
-10.85219558154618
 20
-30.42854465047059
  0
VERTEX
  8
LAYER_1
 62
   250
 10
-11.03873982822018
 20
-30.20123982822017
  0
VERTEX
  8
LAYER_1
 62
   250
 10
-11.2660446504706
 20
-30.01469558154618
  0
VERTEX
  8
LAYER_1
 62
   250
 10
-11.52537485145237
 20
-29.87608070123307
  0
VERTEX
  8
LAYER_1
 62
   250
 10
-11.80676451697581
 20
-29.79072207939515
  0
SEQEND
  8
LAYER_1
 62
   250
  0
POLYLINE
  8
LAYER_1
 62
   250
 66
     1
 70
     1
  0
VERTEX
  8
LAYER_1
 62
   250
 10
2.371
 20
-32.7337
  0
VERTEX
  8
LAYER_1
 62
   250
 10
2.078364516975808
 20
-32.76252207939515
  0
VERTEX
  8
LAYER_1
 62
   250
 10
1.796974851452365
 20
-32.84788070123307
  0
VERTEX
  8
LAYER_1
 62
   250
 10
1.537644650470597
 20
-32.98649558154618
  0
VERTEX
  8
LAYER_1
 62
   250
 10
1.310339828220179
 20
-33.17303982822018
  0
VERTEX
  8
LAYER_1
 62
   250
 10
1.123795581546182
 20
-33.40034465047059
  0
VERTEX
  8
LAYER_1
 62
   250
 10
0.98518070123307
 20
-33.65967485145237
  0
VERTEX
  8
LAYER_1
 62
   250
 10
0.8998220793951544
 20
-33.94106451697581
  0
VERTEX
  8
LAYER_1
 62
   250
 10
0.871
 20
-34.2337
  0
VERTEX
  8
LAYER_1
 62
   250
 10
0.8998220793951544
 20
-34.52633548302419
  0
VERTEX
  8
LAYER_1
 62
   250
 10
0.98518070123307
 20
-34.80772514854763
  0
VERTEX
  8
LAYER_1
 62
   250
 10
1.123795581546182
 20
-35.0670553495294
  0
VERTEX
  8
LAYER_1
 62
   250
 10
1.310339828220179
 20
-35.29436017177982
  0
VERTEX
  8
LAYER_1
 62
   250
 10
1.537644650470597
 20
-35.48090441845382
  0
VERTEX
  8
LAYER_1
 62
   250
 10
1.796974851452366
 20
-35.61951929876693
  0
VERTEX
  8
LAYER_1
 62
   250
 10
2.078364516975808
 20
-35.70487792060484
  0
VERTEX
  8
LAYER_1
 62
   250
 10
2.371000000000001
 20
-35.7337
  0
VERTEX
  8
LAYER_1
 62
   250
 10
2.663635483024194
 20
-35.70487792060484
  0
VERTEX
  8
LAYER_1
 62
   250
 10
2.945025148547636
 20
-35.61951929876693
  0
VERTEX
  8
LAYER_1
 62
   250
 10
3.204355349529405
 20
-35.48090441845382
  0
VERTEX
  8
LAYER_1
 62
   250
 10
3.431660171779823
 20
-35.29436017177982
  0
VERTEX
  8
LAYER_1
 62
   250
 10
3.61820441845382
 20
-35.0670553495294
  0
VERTEX
  8
LAYER_1
 62
   250
 10
3.756819298766931
 20
-34.80772514854763
  0
VERTEX
  8
LAYER_1
 62
   250
 10
3.842177920604846
 20
-34.52633548302419
  0
VERTEX
  8
LAYER_1
 62
   250
 10
3.871
 20
-34.23369999999999
  0
VERTEX
  8
LAYER_1
 62
   250
 10
3.842177920604845
 20
-33.9410645169758
  0
VERTEX
  8
LAYER_1
 62
   250
 10
3.756819298766929
 20
-33.65967485145236
  0
VERTEX
  8
LAYER_1
 62
   250
 10
3.618204418453815
 20
-33.40034465047059
  0
VERTEX
  8
LAYER_1
 62
   250
 10
3.431660171779818
 20
-33.17303982822018
  0
VERTEX
  8
LAYER_1
 62
   250
 10
3.204355349529399
 20
-32.98649558154618
  0
VERTEX
  8
LAYER_1
 62
   250
 10
2.94502514854763
 20
-32.84788070123307
  0
VERTEX
  8
LAYER_1
 62
   250
 10
2.663635483024187
 20
-32.76252207939515
  0
SEQEND
  8
LAYER_1
 62
   250
  0
POLYLINE
  8
LAYER_1
 62
   250
 66
     1
 70
     1
  0
VERTEX
  8
LAYER_1
 62
   250
 10
16.943
 20
-29.7619
  0
VERTEX
  8
LAYER_1
 62
   250
 10
16.65036451697581
 20
-29.79072207939516
  0
VERTEX
  8
LAYER_1
 62
   250
 10
16.36897485145237
 20
-29.87608070123307
  0
VERTEX
  8
LAYER_1
 62
   250
 10
16.1096446504706
 20
-30.01469558154618
  0
VERTEX
  8
LAYER_1
 62
   250
 10
15.88233982822018
 20
-30.20123982822018
  0
VERTEX
  8
LAYER_1
 62
   250
 10
15.69579558154618
 20
-30.4285446504706
  0
VERTEX
  8
LAYER_1
 62
   250
 10
15.55718070123307
 20
-30.68787485145237
  0
VERTEX
  8
LAYER_1
 62
   250
 10
15.47182207939516
 20
-30.96926451697581
  0
VERTEX
  8
LAYER_1
 62
   250
 10
15.443
 20
-31.2619
  0
VERTEX
  8
LAYER_1
 62
   250
 10
15.47182207939516
 20
-31.55453548302419
  0
VERTEX
  8
LAYER_1
 62
   250
 10
15.55718070123307
 20
-31.83592514854763
  0
VERTEX
  8
LAYER_1
 62
   250
 10
15.69579558154618
 20
-32.0952553495294
  0
VERTEX
  8
LAYER_1
 62
   250
 10
15.88233982822018
 20
-32.32256017177982
  0
VERTEX
  8
LAYER_1
 62
   250
 10
16.1096446504706
 20
-32.50910441845382
  0
VERTEX
  8
LAYER_1
 62
   250
 10
16.36897485145237
 20
-32.64771929876693
  0
VERTEX
  8
LAYER_1
 62
   250
 10
16.65036451697581
 20
-32.73307792060485
  0
VERTEX
  8
LAYER_1
 62
   250
 10
16.943
 20
-32.7619
  0
VERTEX
  8
LAYER_1
 62
   250
 10
17.2356354830242
 20
-32.73307792060485
  0
VERTEX
  8
LAYER_1
 62
   250
 10
17.51702514854764
 20
-32.64771929876693
  0
VERTEX
  8
LAYER_1
 62
   250
 10
17.77635534952941
 20
-32.50910441845382
  0
VERTEX
  8
LAYER_1
 62
   250
 10
18.00366017177982
 20
-32.32256017177982
  0
VERTEX
  8
LAYER_1
 62
   250
 10
18.19020441845382
 20
-32.0952553495294
  0
VERTEX
  8
LAYER_1
 62
   250
 10
18.32881929876693
 20
-31.83592514854763
  0
VERTEX
  8
LAYER_1
 62
   250
 10
18.41417792060485
 20
-31.55453548302419
  0
VERTEX
  8
LAYER_1
 62
   250
 10
18.443
 20
-31.2619
  0
VERTEX
  8
LAYER_1
 62
   250
 10
18.41417792060485
 20
-30.96926451697581
  0
VERTEX
  8
LAYER_1
 62
   250
 10
18.32881929876693
 20
-30.68787485145236
  0
VERTEX
  8
LAYER_1
 62
   250
 10
18.19020441845382
 20
-30.42854465047059
  0
VERTEX
  8
LAYER_1
 62
   250
 10
18.00366017177982
 20
-30.20123982822017
  0
VERTEX
  8
LAYER_1
 62
   250
 10
17.7763553495294
 20
-30.01469558154618
  0
VERTEX
  8
LAYER_1
 62
   250
 10
17.51702514854763
 20
-29.87608070123307
  0
VERTEX
  8
LAYER_1
 62
   250
 10
17.23563548302419
 20
-29.79072207939515
  0
SEQEND
  8
LAYER_1
 62
   250
  0
POLYLINE
  8
LAYER_1
 62
   250
 66
     1
 70
     1
  0
VERTEX
  8
LAYER_1
 62
   250
 10
-33.2957
 20
2.8949
  0
VERTEX
  8
LAYER_1
 62
   250
 10
-33.58833548302419
 20
2.866077920604845
  0
VERTEX
  8
LAYER_1
 62
   250
 10
-33.86972514854763
 20
2.78071929876693
  0
VERTEX
  8
LAYER_1
 62
   250
 10
-34.1290553495294
 20
2.642104418453818
  0
VERTEX
  8
LAYER_1
 62
   250
 10
-34.35636017177982
 20
2.455560171779822
  0
VERTEX
  8
LAYER_1
 62
   250
 10
-34.54290441845382
 20
2.228255349529404
  0
VERTEX
  8
LAYER_1
 62
   250
 10
-34.68151929876693
 20
1.968925148547635
  0
VERTEX
  8
LAYER_1
 62
   250
 10
-34.76687792060484
 20
1.687535483024193
  0
VERTEX
  8
LAYER_1
 62
   250
 10
-34.7957
 20
1.3949
  0
VERTEX
  8
LAYER_1
 62
   250
 10
-34.76687792060484
 20
1.102264516975808
  0
VERTEX
  8
LAYER_1
 62
   250
 10
-34.68151929876693
 20
0.8208748514523654
  0
VERTEX
  8
LAYER_1
 62
   250
 10
-34.54290441845382
 20
0.5615446504705971
  0
VERTEX
  8
LAYER_1
 62
   250
 10
-34.35636017177982
 20
0.3342398282201788
  0
VERTEX
  8
LAYER_1
 62
   250
 10
-34.1290553495294
 20
0.147695581546182
  0
VERTEX
  8
LAYER_1
 62
   250
 10
-33.86972514854763
 20
0.0090807012330698
  0
VERTEX
  8
LAYER_1
 62
   250
 10
-33.58833548302419
 20
-0.0762779206048458
  0
VERTEX
  8
LAYER_1
 62
   250
 10
-33.2957
 20
-0.1051
  0
VERTEX
  8
LAYER_1
 62
   250
 10
-33.0030645169758
 20
-0.0762779206048452
  0
VERTEX
  8
LAYER_1
 62
   250
 10
-32.72167485145236
 20
0.0090807012330705
  0
VERTEX
  8
LAYER_1
 62
   250
 10
-32.46234465047059
 20
0.1476955815461833
  0
VERTEX
  8
LAYER_1
 62
   250
 10
-32.23503982822017
 20
0.3342398282201804
  0
VERTEX
  8
LAYER_1
 62
   250
 10
-32.04849558154618
 20
0.561544650470599
  0
VERTEX
  8
LAYER_1
 62
   250
 10
-31.90988070123306
 20
0.8208748514523682
  0
VERTEX
  8
LAYER_1
 62
   250
 10
-31.82452207939515
 20
1.102264516975811
  0
VERTEX
  8
LAYER_1
 62
   250
 10
-31.7957
 20
1.394900000000004
  0
VERTEX
  8
LAYER_1
 62
   250
 10
-31.82452207939515
 20
1.687535483024196
  0
VERTEX
  8
LAYER_1
 62
   250
 10
-31.90988070123307
 20
1.968925148547639
  0
VERTEX
  8
LAYER_1
 62
   250
 10
-32.04849558154618
 20
2.228255349529407
  0
VERTEX
  8
LAYER_1
 62
   250
 10
-32.23503982822018
 20
2.455560171779825
  0
VERTEX
  8
LAYER_1
 62
   250
 10
-32.4623446504706
 20
2.642104418453821
  0
VERTEX
  8
LAYER_1
 62
   250
 10
-32.72167485145237
 20
2.780719298766932
  0
VERTEX
  8
LAYER_1
 62
   250
 10
-33.00306451697581
 20
2.866077920604847
  0
SEQEND
  8
LAYER_1
 62
   250
  0
ENDSEC
  0
EOF
